<?xml version="1.0" encoding="utf-8"?>
<!-- Generator: Adobe Illustrator 23.0.2, SVG Export Plug-In . SVG Version: 6.00 Build 0)  -->
<svg version="1.1" id="Слой_1" xmlns="http://www.w3.org/2000/svg" xmlns:xlink="http://www.w3.org/1999/xlink" x="0px" y="0px"
	 viewBox="0 0 149 105" style="enable-background:new 0 0 149 105;" xml:space="preserve">
<style type="text/css">
	.st0{fill:url(#SVGID_1_);}
</style>
<linearGradient id="SVGID_1_" gradientUnits="userSpaceOnUse" x1="16" y1="54.5" x2="136" y2="54.5" gradientTransform="matrix(1 0 0 -1 0 107)">
	<stop  offset="0" style="stop-color:#5F58AC"/>
	<stop  offset="1" style="stop-color:#9055A4"/>
</linearGradient>
<path class="st0" d="M144.1,97.5H4c-2.3,0-4-1.8-4-4v-0.4c0-2.3,1.8-4,4-4h140.1c2.3,0,4,1.8,4,4v0.4
	C148.1,95.7,146.3,97.5,144.1,97.5z M146.3,93.1c0-1.2-0.9-2.2-2.2-2.2H4c-1.2,0-2.2,0.9-2.2,2.2v0.4c0,1.2,0.9,2.2,2.2,2.2h140.1
	c1.2,0,2.2-0.9,2.2-2.2V93.1z M135,86.3H14.1c-2.6,0-4.7-2.1-4.7-4.7V12.2c0-2.6,2.1-4.7,4.7-4.7H135c2.6,0,4.7,2.1,4.7,4.7v69.4
	C139.7,84.2,137.6,86.3,135,86.3z M137.8,12.2c0-1.6-1.2-2.8-2.8-2.8H14.1c-1.6,0-2.8,1.2-2.8,2.8v69.4c0,1.6,1.2,2.8,2.8,2.8H135
	c1.6,0,2.8-1.2,2.8-2.8V12.2z M128.4,36.6h-24.7c-3.3,0-5.9-2.6-5.9-5.9c0-3.3,2.6-5.9,5.9-5.9s5.9,2.6,5.9,5.9
	c0,0.6-0.4,0.9-0.9,0.9s-0.9-0.4-0.9-0.9c0-2.3-1.8-4-4-4s-4,1.8-4,4s1.8,4,4,4h24.7c0.6,0,0.9,0.4,0.9,0.9
	C129.4,36.1,129,36.6,128.4,36.6z M112.3,31.6c-0.6,0-0.9-0.4-0.9-0.9c0-4.2-3.5-7.7-7.7-7.7c-4.2,0-7.7,3.5-7.7,7.7
	c0,4.2,3.5,7.7,7.7,7.7h24.6c0.6,0,0.9,0.4,0.9,0.9s-0.4,0.9-0.9,0.9h-24.6c-5.3,0-9.6-4.3-9.6-9.6s4.3-9.6,9.6-9.6
	c5.3,0,9.6,4.3,9.6,9.6C113.3,31.1,112.9,31.6,112.3,31.6z M96.3,56.5l0.1,1.1c0.5,0.2,0.8,0.3,1.2,0.6l1-0.8
	c0.6-0.4,1.5-0.6,2.2,0.1l0.9,1c0.6,0.6,0.4,1.5-0.1,2.1l-0.9,1.1c0.2,0.4,0.3,0.8,0.5,1.2l1.1,0.2c0.8,0.1,1.2,0.8,1.2,1.5
	l-0.1,1.4c0,0.8-0.6,1.3-1.3,1.4l-1.3,0.1c-0.2,0.4-0.3,0.7-0.5,1l0.8,1.1c0.4,0.6,0.3,1.4-0.3,1.9l-1,0.9c-0.6,0.6-1.3,0.6-1.9,0.1
	l-1.1-0.9c-0.3,0.1-0.7,0.3-0.9,0.4l-0.3,1.5c-0.1,0.7-0.8,1.2-1.5,1.2c0,0,0,0-0.1,0l-1.4-0.1c-0.8,0-1.3-0.6-1.4-1.3l-0.2-1.6
	c-0.3-0.1-0.6-0.3-0.8-0.4l-1,0.8c-0.4,0.3-1,0.5-1.8-0.4l-0.9-1c-0.8-0.8-0.6-1.4-0.2-1.8l0.8-1c-0.1-0.3-0.3-0.6-0.4-0.9l-1.5-0.3
	c-0.8-0.1-1.2-0.8-1.2-1.5l0.1-1.4c0-0.8,0.6-1.4,1.3-1.4l1.4-0.2c0.1-0.4,0.3-0.7,0.5-1l-0.8-1.1c-0.5-0.7-0.4-1.5,0.2-2l1-0.9
	c0.6-0.5,1.4-0.6,2,0l1,0.8c0.4-0.2,0.8-0.4,1.1-0.5l0.2-1.2c0.1-0.8,0.8-1.2,1.5-1.2l1.4,0.1C95.6,55.2,96.2,55.8,96.3,56.5z
	 M99.2,58.2l0.6,0.8h0.1L99.2,58.2z M94.4,57.1h-0.8l-0.4,2.1l-0.7,0.1c-0.7,0.1-1.2,0.4-1.8,0.7l-0.6,0.4l-1.8-1.5l-0.6,0.5l1.3,2
	l-0.4,0.6c-0.3,0.5-0.6,1-0.7,1.7L88.1,64l-2.3,0.3v0.8l2.3,0.5l0.1,0.6c0.1,0.6,0.3,1.1,0.6,1.6l0.3,0.6l-1.3,1.6l0.6,0.6l1.8-1.2
	l0.6,0.4c0.6,0.4,1,0.6,1.5,0.8l0.6,0.2l0.2,2.4h0.8l0.5-2.3l0.7-0.1c0.6-0.1,1.1-0.3,1.6-0.6l0.6-0.3l1.8,1.5l0.6-0.5L98,68.8
	l0.4-0.6c0.4-0.5,0.7-1,0.8-1.7l0.2-0.6l2.2-0.2v-0.8l-2.1-0.4L99.4,64c-0.1-0.7-0.3-1.2-0.7-1.9l-0.3-0.6l1.7-2l-0.5-0.5l-2.1,1.4
	L97,60.2c-0.5-0.4-1.1-0.6-1.9-0.8l-0.7-0.2L94.4,57.1z M96.5,62.1c0.7,0.8,1,1.7,1,2.6c0,1-0.4,2-1.1,2.6c-0.8,0.8-1.7,1.1-2.6,1.1
	s-1.9-0.4-2.6-1.1c-0.7-0.7-1.1-1.6-1.1-2.6c0-1,0.4-2,1.1-2.6C92.6,60.7,95,60.7,96.5,62.1z M95.2,63.5c-0.4-0.4-0.8-0.6-1.3-0.6
	c-0.5,0-0.9,0.2-1.3,0.6S92,64.3,92,64.8c0,0.5,0.2,0.9,0.6,1.3c0.8,0.8,1.9,0.8,2.6,0c0.4-0.4,0.6-0.8,0.6-1.3
	C95.6,64.2,95.4,63.8,95.2,63.5z M90.8,41.3c-0.6,0-0.9-0.4-0.9-0.9V22.9h-3c-0.6,0-0.9-0.4-0.9-0.9s0.4-0.9,0.9-0.9h3.9
	c0.6,0,0.9,0.4,0.9,0.9v18.4C91.7,40.9,91.2,41.3,90.8,41.3z M88.3,25.5v14.8c0,0.6-0.4,0.9-0.9,0.9s-0.9-0.4-0.9-0.9V26.4h-3
	c-0.6,0-0.9-0.4-0.9-0.9s0.4-0.9,0.9-0.9h3.9C87.9,24.6,88.3,25,88.3,25.5z M66.6,71.3H35.6c-0.6,0-0.9-0.4-0.9-0.9s0.4-0.9,0.9-0.9
	h30.9c0.6,0,0.9,0.4,0.9,0.9S67.1,71.3,66.6,71.3z M35.6,65.6h13.1c0.6,0,0.9,0.4,0.9,0.9s-0.4,0.9-0.9,0.9H35.6
	c-0.6,0-0.9-0.4-0.9-0.9S35.1,65.6,35.6,65.6z M66.6,57.2H35.6c-0.6,0-0.9-0.4-0.9-0.9s0.4-0.9,0.9-0.9h30.9c0.6,0,0.9,0.4,0.9,0.9
	S67.1,57.2,66.6,57.2z M35.6,51.6h13.1c0.6,0,0.9,0.4,0.9,0.9s-0.4,0.9-0.9,0.9H35.6c-0.6,0-0.9-0.4-0.9-0.9S35.1,51.6,35.6,51.6z
	 M66.6,43.1H35.6c-0.6,0-0.9-0.4-0.9-0.9s0.4-0.9,0.9-0.9h30.9c0.6,0,0.9,0.4,0.9,0.9S67.1,43.1,66.6,43.1z M35.6,37.5h13.1
	c0.6,0,0.9,0.4,0.9,0.9s-0.4,0.9-0.9,0.9H35.6c-0.6,0-0.9-0.4-0.9-0.9S35.1,37.5,35.6,37.5z M66.6,29.1H35.6c-0.6,0-0.9-0.4-0.9-0.9
	s0.4-0.9,0.9-0.9h30.9c0.6,0,0.9,0.4,0.9,0.9S67.1,29.1,66.6,29.1z M48.8,25.3H35.6c-0.6,0-0.9-0.4-0.9-0.9s0.4-0.9,0.9-0.9h13.1
	c0.6,0,0.9,0.4,0.9,0.9S49.3,25.3,48.8,25.3z M29.1,72.2h-7.5c-0.6,0-0.9-0.4-0.9-0.9v-5.6c0-0.6,0.4-0.9,0.9-0.9h7.5
	c0.6,0,0.9,0.4,0.9,0.9v5.6C30,71.8,29.6,72.2,29.1,72.2z M28.1,66.6h-5.6v3.8h5.6V66.6z M29.1,58.1h-7.5c-0.6,0-0.9-0.4-0.9-0.9
	v-5.6c0-0.6,0.4-0.9,0.9-0.9h7.5c0.6,0,0.9,0.4,0.9,0.9v5.6C30,57.8,29.6,58.1,29.1,58.1z M28.1,52.5h-5.6v3.8h5.6V52.5z M29.1,44.1
	h-7.5c-0.6,0-0.9-0.4-0.9-0.9v-5.6c0-0.6,0.4-0.9,0.9-0.9h7.5c0.6,0,0.9,0.4,0.9,0.9v5.6C30,43.7,29.6,44.1,29.1,44.1z M28.1,38.4
	h-5.6v3.8h5.6V38.4z M29.1,30h-7.5c-0.6,0-0.9-0.4-0.9-0.9v-5.6c0-0.6,0.4-0.9,0.9-0.9h7.5c0.6,0,0.9,0.4,0.9,0.9v5.6
	C30,29.6,29.6,30,29.1,30z M28.1,24.4h-5.6v3.8h5.6V24.4z M105.3,65.4c-0.1-0.5-0.1-0.9-0.2-1.4l-1.8-0.8c-0.8-0.4-1-1.1-0.8-2
	l0.5-1.6c0.3-0.8,0.9-1.2,1.8-1.1l1.8,0.3c0.3-0.5,0.6-0.8,0.9-1.2l-0.6-1.7c-0.3-0.8,0-1.7,0.8-2.1l1.5-0.8
	c0.8-0.4,1.6-0.2,2.1,0.6l1,1.4c0.6-0.1,1.1-0.2,1.7-0.2l0.7-1.4c0.4-0.8,1.1-1,2-0.8l1.6,0.5c0.8,0.3,1.3,0.9,1.1,1.8l-0.2,1.5
	c0.6,0.4,1,0.8,1.4,1.1l1.6-0.6c0.7-0.3,1.8-0.2,2.3,0.7l0.7,1.5c0.4,0.8,0,1.7-0.7,2.2l-1.6,1.1c0.1,0.6,0.2,1.1,0.1,1.8l1.4,0.7
	c0.8,0.4,1.1,1.1,0.8,2l-0.5,1.6c-0.3,0.8-0.9,1.2-1.8,1.1l-1.7-0.3c-0.3,0.5-0.7,0.8-1,1.2l0.6,1.6c0.3,0.8-0.1,1.5-0.8,2l-1.5,0.8
	c-0.8,0.4-1.6,0.2-2.1-0.4l-1.1-1.6c-0.5,0.1-0.9,0.1-1.4,0.1l-0.8,1.7c-0.3,0.6-0.8,0.8-1.4,0.8c-0.2,0-0.4,0-0.5-0.1l-1.6-0.5
	c-0.8-0.3-1.2-0.9-1.1-1.8l0.4-2c-0.4-0.3-0.7-0.6-1-0.8l-1.8,0.7c-0.8,0.3-1.3,0-1.7-0.8l-0.8-1.5c-0.5-0.8-0.4-1.5,0.3-2
	L105.3,65.4z M106,68.8l2.4-0.8l0.4,0.5c0.5,0.6,1,1,1.6,1.3l0.6,0.4l-0.5,2.9l1.2,0.4l1.2-2.6l0.7,0.1c0.8,0.1,1.4,0,2.2-0.2
	l0.6-0.1l1.7,2.3l1.1-0.6l-0.9-2.6l0.5-0.4c0.6-0.5,1.1-1,1.5-1.7l0.4-0.6l2.6,0.5l0.4-1.2l-2.3-1.1l0.1-0.7c0.1-0.8,0-1.6-0.2-2.4
	l-0.2-0.7l2.5-1.8l-0.6-1c0,0,0,0-0.1,0l-2.8,1l-0.4-0.5c-0.5-0.6-1.1-1.1-2-1.5l-0.6-0.3l0.4-2.5l-1.2-0.4l-1.1,2.3h-0.7
	c-0.8-0.1-1.6,0-2.3,0.3l-0.6,0.1l-1.7-2.3l-1.1,0.6l0.9,2.7l-0.5,0.4c-0.6,0.5-1,1-1.4,1.8l-0.3,0.6l-2.8-0.5l-0.4,1.2l2.6,1.2v0.7
	c0,0.7,0,1.4,0.2,2.1l0.2,0.7l-2.1,1.5L106,68.8z M114.3,58.7c1.3,0,2.5,0.5,3.4,1.4c1.9,1.9,1.9,4.9,0,6.7
	c-0.9,0.9-2.2,1.4-3.4,1.4c-1.3,0-2.5-0.5-3.4-1.4c-0.9-0.9-1.4-2.2-1.4-3.4c0-1.3,0.5-2.5,1.4-3.4C111.8,59.3,113,58.7,114.3,58.7z
	 M112.2,65.6c1.1,1.1,3,1.1,4.1,0s1.1-3,0-4.1c-0.6-0.6-1.3-0.8-2.1-0.8s-1.5,0.3-2.1,0.8c-0.6,0.6-0.8,1.3-0.8,2.1
	C111.3,64.3,111.7,65.1,112.2,65.6z"/>
</svg>
