<svg width="113" height="103" viewBox="0 0 113 103" fill="none" xmlns="http://www.w3.org/2000/svg">
<path d="M90.0375 7.84914H44.7125C43.5094 7.84914 42.525 8.833 42.525 10.0355C42.525 11.238 43.5094 12.2219 44.7125 12.2219H90.0375C91.2407 12.2219 92.225 11.238 92.225 10.0355C92.225 8.833 91.2407 7.84914 90.0375 7.84914Z" fill="url(#paint0_linear)"/>
<path d="M22.575 8.505C22.1593 8.08959 21.6125 7.87095 21.0218 7.87095C20.4531 7.87095 19.8843 8.11145 19.4687 8.505C19.0531 8.92041 18.8343 9.467 18.8343 10.0573C18.8343 10.6258 19.075 11.1942 19.4687 11.6096C19.8843 12.0251 20.4312 12.2437 21.0218 12.2437C21.5906 12.2437 22.1593 12.0032 22.575 11.6096C22.9906 11.1942 23.2093 10.6476 23.2093 10.0573C23.2312 9.467 22.9906 8.89855 22.575 8.505Z" fill="url(#paint1_linear)"/>
<path d="M14.5687 8.505C14.1531 8.08959 13.6062 7.87095 13.0156 7.87095C12.4469 7.87095 11.8781 8.11145 11.4625 8.505C11.0469 8.92041 10.8281 9.467 10.8281 10.0573C10.8281 10.6258 11.0688 11.1942 11.4625 11.6096C11.8781 12.0251 12.425 12.2437 13.0156 12.2437C13.5844 12.2437 14.1531 12.0032 14.5687 11.6096C14.9844 11.1942 15.2031 10.6476 15.2031 10.0573C15.2031 9.467 14.9625 8.89855 14.5687 8.505Z" fill="url(#paint2_linear)"/>
<path d="M30.6033 8.505C30.1876 8.08959 29.6408 7.87095 29.0501 7.87095C28.4814 7.87095 27.9126 8.11145 27.497 8.505C27.0814 8.92041 26.8626 9.467 26.8626 10.0573C26.8626 10.6258 27.1033 11.1942 27.497 11.6096C27.9126 12.0251 28.4595 12.2437 29.0501 12.2437C29.6189 12.2437 30.1876 12.0032 30.6033 11.6096C31.0189 11.1942 31.2376 10.6476 31.2376 10.0573C31.2376 9.467 31.0189 8.89855 30.6033 8.505Z" fill="url(#paint3_linear)"/>
<path d="M111.366 90.8875L94.1719 73.7026L99.5531 68.3241L108.041 76.8073C108.894 77.6599 110.272 77.6599 111.125 76.8073C111.978 75.9546 111.978 74.5772 111.125 73.7245L101.084 63.689C100.231 62.8363 98.8531 62.8363 98 63.689L95.3094 66.3783L93.9969 65.0664C97.7594 60.6281 100.013 54.8779 100.013 48.6249C100.013 34.5228 88.55 23.0662 74.4406 23.0662C67.1781 23.0662 60.6156 26.1053 55.9562 30.9809C55.9344 30.9809 55.9125 30.9809 55.8906 30.9809H13.9781C12.775 30.9809 11.7906 31.9648 11.7906 33.1673V63.7109C11.7906 64.9134 12.775 65.8973 13.9781 65.8973H55.65C60.3312 70.9915 67.025 74.1836 74.4625 74.1836C80.7188 74.1836 86.4719 71.9098 90.9125 68.1711L92.225 69.4829L89.5344 72.1721C89.1187 72.5876 88.9 73.1342 88.9 73.7245C88.9 74.3148 89.1406 74.8614 89.5344 75.2768L98.6781 84.4158V93.861C98.6781 96.5065 96.5125 98.671 93.8656 98.671H9.16563C6.51875 98.671 4.35313 96.5065 4.35313 93.861V20.0709H98.6781V29.9096C98.6781 31.1121 99.6625 32.0959 100.866 32.0959C102.069 32.0959 103.053 31.1121 103.053 29.9096V9.1609C103.053 4.11038 98.9406 0 93.8875 0H9.16563C4.1125 0 0 4.11038 0 9.1609V93.8391C0 98.8896 4.1125 103 9.16563 103H93.8875C98.9406 103 103.053 98.8896 103.053 93.8391V88.7667L108.281 93.9921C108.697 94.4076 109.266 94.6262 109.834 94.6262C110.403 94.6262 110.95 94.4076 111.388 93.9921C112.219 93.1176 112.219 91.7402 111.366 90.8875ZM48.9125 49.2808L46.1562 43.9679C45.6094 42.8966 44.275 42.4812 43.2031 43.0278C42.1312 43.5744 41.7156 44.9081 42.2625 45.9794L47.3813 55.8837C47.775 56.627 48.5406 57.0643 49.3281 57.0643C49.6344 57.0643 49.9406 56.9987 50.2469 56.8675C50.8156 58.5073 51.5375 60.0815 52.3906 61.5464H16.1656V35.3536H52.6313C50.2688 39.2235 48.9125 43.7712 48.9125 48.6249C48.9125 48.8436 48.9125 49.0622 48.9125 49.2808ZM74.4625 69.8109C62.7812 69.8109 53.2656 60.3001 53.2656 48.6249C53.2656 48.45 53.2656 48.297 53.2656 48.1221L57.2906 55.8837C57.6625 56.6052 58.4062 57.0643 59.2375 57.0643H59.2594C60.0906 57.0425 60.8344 56.5833 61.1844 55.8181L65.9313 45.9138C66.4563 44.8206 65.9969 43.5307 64.9031 43.0059C63.8094 42.4812 62.5187 42.9403 61.9937 44.0335L59.1281 49.9805L56.0219 43.9679C55.6281 43.2027 54.8625 42.7873 54.0531 42.7873C56.5906 33.9325 64.7719 27.4171 74.4406 27.4171C86.1219 27.4171 95.6375 36.9278 95.6375 48.6031C95.6375 60.2783 86.1656 69.8109 74.4625 69.8109ZM4.375 9.1609C4.375 6.51539 6.54062 4.35088 9.1875 4.35088H93.9094C96.5562 4.35088 98.7219 6.51539 98.7219 9.1609V15.6982H4.375V9.1609Z" fill="url(#paint4_linear)"/>
<path d="M39.9217 43.006C38.828 42.4812 37.5374 42.9404 37.0124 44.0336L34.1467 49.9805L31.0405 43.968C30.6686 43.2246 29.903 42.7655 29.0717 42.7873C28.2405 42.8092 27.4967 43.2683 27.1467 44.0336L24.2811 49.9805L21.1749 43.968C20.628 42.8967 19.2936 42.4813 18.2217 43.0278C17.1499 43.5744 16.7342 44.9081 17.2811 45.9795L22.3999 55.8837C22.7717 56.6271 23.5373 57.0862 24.3686 57.0644C25.1999 57.0425 25.9436 56.5834 26.2936 55.8181L29.1592 49.8712L32.2655 55.8837C32.6374 56.6052 33.3811 57.0644 34.2124 57.0644C34.2342 57.0644 34.2342 57.0644 34.2342 57.0644C35.0655 57.0425 35.8092 56.5834 36.1592 55.8181L40.9061 45.9139C41.453 44.8425 40.9936 43.5307 39.9217 43.006Z" fill="url(#paint5_linear)"/>
<path d="M89.95 43.006C88.8563 42.4812 87.5657 42.9404 87.0407 44.0336L84.175 49.9805L81.0688 43.968C80.6969 43.2246 79.9094 42.7873 79.1 42.7873C78.2688 42.8092 77.525 43.2683 77.175 44.0336L74.3094 49.9805L71.2032 43.968C70.6563 42.8967 69.3219 42.4812 68.25 43.0278C67.1782 43.5744 66.7625 44.9081 67.3094 45.9794L72.4282 55.8837C72.8 56.6052 73.5438 57.0644 74.375 57.0644C74.3969 57.0644 74.3969 57.0644 74.3969 57.0644C75.2282 57.0425 75.9719 56.5834 76.3219 55.8181L79.1875 49.8712L82.2938 55.8837C82.6657 56.6052 83.4094 57.0644 84.2407 57.0644C84.2625 57.0644 84.2625 57.0644 84.2625 57.0644C85.0938 57.0425 85.8375 56.5834 86.1875 55.8181L90.9344 45.9138C91.5032 44.8425 91.0438 43.5307 89.95 43.006Z" fill="url(#paint6_linear)"/>
<path d="M15.5095 83.1258C15.0939 82.7104 14.547 82.4918 13.9564 82.4918C13.3658 82.4918 12.8189 82.7323 12.4033 83.1258C11.9876 83.5413 11.7689 84.0878 11.7689 84.6782C11.7689 85.2685 12.0095 85.8151 12.4033 86.2305C12.8189 86.6459 13.3658 86.8645 13.9564 86.8645C14.547 86.8645 15.0939 86.624 15.5095 86.2305C15.9251 85.8151 16.1439 85.2685 16.1439 84.6782C16.1439 84.0878 15.9251 83.5413 15.5095 83.1258Z" fill="url(#paint7_linear)"/>
<path d="M63.9843 82.4918H21.4593C20.2562 82.4918 19.2718 83.4757 19.2718 84.6782C19.2718 85.8807 20.2562 86.8645 21.4593 86.8645H63.9843C65.1875 86.8645 66.1718 85.8807 66.1718 84.6782C66.1718 83.4757 65.1875 82.4918 63.9843 82.4918Z" fill="url(#paint8_linear)"/>
<path d="M55.8906 72.0192H43.0062C41.8031 72.0192 40.8187 73.003 40.8187 74.2055C40.8187 75.4081 41.8031 76.3919 43.0062 76.3919H55.8906C57.0937 76.3919 58.0781 75.4081 58.0781 74.2055C58.0781 73.003 57.0937 72.0192 55.8906 72.0192Z" fill="url(#paint9_linear)"/>
<path d="M33.2063 72.0192H13.9782C12.775 72.0192 11.7907 73.003 11.7907 74.2055C11.7907 75.4081 12.775 76.3919 13.9782 76.3919H33.2063C34.4094 76.3919 35.3938 75.4081 35.3938 74.2055C35.3938 73.003 34.4094 72.0192 33.2063 72.0192Z" fill="url(#paint10_linear)"/>
<defs>
<linearGradient id="paint0_linear" x1="10.5397" y1="103" x2="101.43" y2="103" gradientUnits="userSpaceOnUse">
<stop stop-color="#5F58AC"/>
<stop offset="1" stop-color="#9055A4"/>
</linearGradient>
<linearGradient id="paint1_linear" x1="10.5397" y1="103" x2="101.43" y2="103" gradientUnits="userSpaceOnUse">
<stop stop-color="#5F58AC"/>
<stop offset="1" stop-color="#9055A4"/>
</linearGradient>
<linearGradient id="paint2_linear" x1="10.5397" y1="103" x2="101.43" y2="103" gradientUnits="userSpaceOnUse">
<stop stop-color="#5F58AC"/>
<stop offset="1" stop-color="#9055A4"/>
</linearGradient>
<linearGradient id="paint3_linear" x1="10.5397" y1="103" x2="101.43" y2="103" gradientUnits="userSpaceOnUse">
<stop stop-color="#5F58AC"/>
<stop offset="1" stop-color="#9055A4"/>
</linearGradient>
<linearGradient id="paint4_linear" x1="10.5397" y1="103" x2="101.43" y2="103" gradientUnits="userSpaceOnUse">
<stop stop-color="#5F58AC"/>
<stop offset="1" stop-color="#9055A4"/>
</linearGradient>
<linearGradient id="paint5_linear" x1="10.5397" y1="103" x2="101.43" y2="103" gradientUnits="userSpaceOnUse">
<stop stop-color="#5F58AC"/>
<stop offset="1" stop-color="#9055A4"/>
</linearGradient>
<linearGradient id="paint6_linear" x1="10.5397" y1="103" x2="101.43" y2="103" gradientUnits="userSpaceOnUse">
<stop stop-color="#5F58AC"/>
<stop offset="1" stop-color="#9055A4"/>
</linearGradient>
<linearGradient id="paint7_linear" x1="10.5397" y1="103" x2="101.43" y2="103" gradientUnits="userSpaceOnUse">
<stop stop-color="#5F58AC"/>
<stop offset="1" stop-color="#9055A4"/>
</linearGradient>
<linearGradient id="paint8_linear" x1="10.5397" y1="103" x2="101.43" y2="103" gradientUnits="userSpaceOnUse">
<stop stop-color="#5F58AC"/>
<stop offset="1" stop-color="#9055A4"/>
</linearGradient>
<linearGradient id="paint9_linear" x1="10.5397" y1="103" x2="101.43" y2="103" gradientUnits="userSpaceOnUse">
<stop stop-color="#5F58AC"/>
<stop offset="1" stop-color="#9055A4"/>
</linearGradient>
<linearGradient id="paint10_linear" x1="10.5397" y1="103" x2="101.43" y2="103" gradientUnits="userSpaceOnUse">
<stop stop-color="#5F58AC"/>
<stop offset="1" stop-color="#9055A4"/>
</linearGradient>
</defs>
</svg>
