<svg width="149" height="105" viewBox="0 0 149 105" fill="none" xmlns="http://www.w3.org/2000/svg">
<path d="M144.945 98.4375H75.443C75.443 99 75.0658 99.375 74.5 99.375C73.9342 99.375 73.557 99 73.557 98.4375H4.05506C1.79177 98.4375 0 96.6562 0 94.4062V94.0312C0 91.7812 1.79177 90 4.05506 90H144.945C147.208 90 149 91.7812 149 94.0312V94.4062C149 96.6562 147.208 98.4375 144.945 98.4375ZM147.114 94.0312C147.114 92.8125 146.171 91.875 144.945 91.875H75.443V92.8125C75.443 93.375 75.0658 93.75 74.5 93.75C73.9342 93.75 73.557 93.375 73.557 92.8125V91.875H4.05506C2.82911 91.875 1.88608 92.8125 1.88608 94.0312V94.4062C1.88608 95.625 2.82911 96.5625 4.05506 96.5625H73.557C73.557 96 73.9342 95.625 74.5 95.625C75.0658 95.625 75.443 96 75.443 96.5625H144.945C146.171 96.5625 147.114 95.625 147.114 94.4062V94.0312ZM135.797 87.1875H75.443C75.443 87.75 75.0658 88.125 74.5 88.125C73.9342 88.125 73.557 87.75 73.557 87.1875H14.1456C11.5051 87.1875 9.43038 85.125 9.43038 82.5V13.125C9.43038 10.5 11.5051 8.4375 14.1456 8.4375H73.557V6.5625C73.557 6 73.9342 5.625 74.5 5.625C75.0658 5.625 75.443 6 75.443 6.5625V8.4375H135.797C138.438 8.4375 140.513 10.5 140.513 13.125V82.5C140.513 85.125 138.438 87.1875 135.797 87.1875ZM138.627 13.125C138.627 11.5312 137.401 10.3125 135.797 10.3125H14.1456C12.5424 10.3125 11.3165 11.5312 11.3165 13.125V82.5C11.3165 84.0938 12.5424 85.3125 14.1456 85.3125H73.557C73.557 84.75 73.9342 84.375 74.5 84.375C75.0658 84.375 75.443 84.75 75.443 85.3125H135.797C137.401 85.3125 138.627 84.0938 138.627 82.5V13.125ZM130.139 42.1875H114.108C113.542 42.1875 113.165 41.8125 113.165 41.25C113.165 40.6875 113.542 40.3125 114.108 40.3125H130.139C130.705 40.3125 131.082 40.6875 131.082 41.25C131.082 41.8125 130.705 42.1875 130.139 42.1875ZM118.823 36.5625H109.392C108.827 36.5625 108.449 36.1875 108.449 35.625C108.449 35.0625 108.827 34.6875 109.392 34.6875H118.823C119.389 34.6875 119.766 35.0625 119.766 35.625C119.766 36.1875 119.389 36.5625 118.823 36.5625ZM105.62 36.5625H93.3608C92.7949 36.5625 92.4177 36.1875 92.4177 35.625C92.4177 35.0625 92.7949 34.6875 93.3608 34.6875H105.62C106.186 34.6875 106.563 35.0625 106.563 35.625C106.563 36.1875 106.186 36.5625 105.62 36.5625ZM99.8677 27.2812C99.6791 27.4688 99.3962 27.5625 99.2076 27.5625C98.9247 27.5625 98.7361 27.4688 98.5475 27.2812C98.1703 26.9062 98.1703 26.3438 98.5475 25.9688L101.565 22.9688L98.4532 19.875C98.076 19.5 98.076 18.9375 98.4532 18.5625C98.8304 18.1875 99.3962 18.1875 99.7734 18.5625L103.546 22.3125C103.923 22.6875 103.923 23.25 103.546 23.625L99.8677 27.2812ZM97.1329 23.4375H88.6456C88.0797 23.4375 87.7025 23.0625 87.7025 22.5C87.7025 21.9375 88.0797 21.5625 88.6456 21.5625H97.1329C97.6987 21.5625 98.076 21.9375 98.076 22.5C98.076 23.0625 97.6987 23.4375 97.1329 23.4375ZM84.0247 22.9688L87.0424 25.9688C87.4196 26.3438 87.4196 26.9062 87.0424 27.2812C86.8538 27.4688 86.5709 27.5625 86.3823 27.5625C86.0994 27.5625 85.9108 27.4688 85.7222 27.2812L82.0443 23.7188C81.6671 23.3438 81.6671 22.7812 82.0443 22.4062L85.8165 18.6562C86.1937 18.2812 86.7595 18.2812 87.1367 18.6562C87.5139 19.0312 87.5139 19.5938 87.1367 19.9688L84.0247 22.9688ZM85.7222 69.75C86.0994 69.375 86.6652 69.375 87.0424 69.75C87.4196 70.125 87.4196 70.6875 87.0424 71.0625L83.9304 74.1562L86.9481 77.1562C87.3253 77.5312 87.3253 78.0938 86.9481 78.4688C86.7595 78.6562 86.5709 78.75 86.288 78.75C86.0051 78.75 85.8165 78.6562 85.6279 78.4688L82.0443 74.8125C81.6671 74.4375 81.6671 73.875 82.0443 73.5L85.7222 69.75ZM92.2291 69.9375C92.512 69.4688 93.0778 69.375 93.5494 69.5625C94.0209 69.8438 94.1152 70.4062 93.9266 70.875L90.0601 77.4375C89.8715 77.7188 89.5886 77.9062 89.2114 77.9062C89.0228 77.9062 88.9285 77.9062 88.7399 77.8125C88.2684 77.5312 88.174 76.9688 88.3627 76.5L92.2291 69.9375ZM95.2468 73.125H103.734C104.3 73.125 104.677 73.5 104.677 74.0625C104.677 74.625 104.3 75 103.734 75H95.2468C94.681 75 94.3038 74.625 94.3038 74.0625C94.3038 73.5 94.681 73.125 95.2468 73.125ZM105.432 69.75C105.809 69.375 106.375 69.375 106.752 69.75L110.524 73.5C110.901 73.875 110.901 74.4375 110.524 74.8125L106.846 78.4688C106.658 78.6562 106.375 78.75 106.186 78.75C105.903 78.75 105.715 78.6562 105.526 78.4688C105.149 78.0938 105.149 77.5312 105.526 77.1562L108.544 74.1562L105.432 71.0625C105.054 70.6875 105.054 70.125 105.432 69.75ZM25.5563 55.4062C25.9335 55.0312 26.4994 55.0312 26.8766 55.4062C27.2538 55.7812 27.2538 56.3438 26.8766 56.7188L23.7646 59.8125L26.7823 62.8125C27.1595 63.1875 27.1595 63.75 26.7823 64.125C26.5937 64.3125 26.3108 64.4062 26.1222 64.4062C25.8392 64.4062 25.6506 64.3125 25.462 64.125L21.7842 60.4688C21.407 60.0938 21.407 59.5312 21.7842 59.1562L25.5563 55.4062ZM60.0715 55.4062C60.4487 55.0312 61.0146 55.0312 61.3918 55.4062L65.1639 59.1562C65.5411 59.5312 65.5411 60.0938 65.1639 60.4688L61.4861 64.125C61.2975 64.3125 61.0146 64.4062 60.826 64.4062C60.543 64.4062 60.3544 64.3125 60.1658 64.125C59.7886 63.75 59.7886 63.1875 60.1658 62.8125L63.1835 59.8125L60.0715 56.7188C59.6943 56.3438 59.6943 55.7812 60.0715 55.4062ZM101.848 61.875C101.848 61.3125 102.225 60.9375 102.791 60.9375H115.051C115.616 60.9375 115.994 61.3125 115.994 61.875C115.994 62.4375 115.616 62.8125 115.051 62.8125H102.791C102.225 62.8125 101.848 62.4375 101.848 61.875ZM114.108 56.25C114.108 55.6875 114.485 55.3125 115.051 55.3125H121.652C122.218 55.3125 122.595 55.6875 122.595 56.25C122.595 56.8125 122.218 57.1875 121.652 57.1875H115.051C114.485 57.1875 114.108 56.8125 114.108 56.25ZM102.791 40.3125H110.335C110.901 40.3125 111.278 40.6875 111.278 41.25C111.278 41.8125 110.901 42.1875 110.335 42.1875H102.791C102.225 42.1875 101.848 41.8125 101.848 41.25C101.848 40.6875 102.225 40.3125 102.791 40.3125ZM103.734 50.625C103.734 51.1875 103.357 51.5625 102.791 51.5625H96.1899C95.624 51.5625 95.2468 51.1875 95.2468 50.625C95.2468 50.0625 95.624 49.6875 96.1899 49.6875H102.791C103.357 49.6875 103.734 50.0625 103.734 50.625ZM82.9873 49.6875H92.4177C92.9836 49.6875 93.3608 50.0625 93.3608 50.625C93.3608 51.1875 92.9836 51.5625 92.4177 51.5625H82.9873C82.4215 51.5625 82.0443 51.1875 82.0443 50.625C82.0443 50.0625 82.4215 49.6875 82.9873 49.6875ZM82.9873 55.3125H90.5316C91.0975 55.3125 91.4747 55.6875 91.4747 56.25C91.4747 56.8125 91.0975 57.1875 90.5316 57.1875H82.9873C82.4215 57.1875 82.0443 56.8125 82.0443 56.25C82.0443 55.6875 82.4215 55.3125 82.9873 55.3125ZM93.3608 56.25C93.3608 55.6875 93.738 55.3125 94.3038 55.3125H110.335C110.901 55.3125 111.278 55.6875 111.278 56.25C111.278 56.8125 110.901 57.1875 110.335 57.1875H94.3038C93.738 57.1875 93.3608 56.8125 93.3608 56.25ZM99.019 62.8125H82.9873C82.4215 62.8125 82.0443 62.4375 82.0443 61.875C82.0443 61.3125 82.4215 60.9375 82.9873 60.9375H99.019C99.5848 60.9375 99.962 61.3125 99.962 61.875C99.962 62.4375 99.5848 62.8125 99.019 62.8125ZM82.9873 36.5625C82.4215 36.5625 82.0443 36.1875 82.0443 35.625C82.0443 35.0625 82.4215 34.6875 82.9873 34.6875H89.5886C90.1544 34.6875 90.5316 35.0625 90.5316 35.625C90.5316 36.1875 90.1544 36.5625 89.5886 36.5625H82.9873ZM99.962 41.25C99.962 41.8125 99.5848 42.1875 99.019 42.1875H82.9873C82.4215 42.1875 82.0443 41.8125 82.0443 41.25C82.0443 40.6875 82.4215 40.3125 82.9873 40.3125H99.019C99.5848 40.3125 99.962 40.6875 99.962 41.25ZM106.563 50.625C106.563 50.0625 106.941 49.6875 107.506 49.6875H123.538C124.104 49.6875 124.481 50.0625 124.481 50.625C124.481 51.1875 124.104 51.5625 123.538 51.5625H107.506C106.941 51.5625 106.563 51.1875 106.563 50.625ZM74.5 82.5C73.9342 82.5 73.557 82.125 73.557 81.5625V79.6875C73.557 79.125 73.9342 78.75 74.5 78.75C75.0658 78.75 75.443 79.125 75.443 79.6875V81.5625C75.443 82.125 75.0658 82.5 74.5 82.5ZM74.5 76.875C73.9342 76.875 73.557 76.5 73.557 75.9375V74.0625C73.557 73.5 73.9342 73.125 74.5 73.125C75.0658 73.125 75.443 73.5 75.443 74.0625V75.9375C75.443 76.5 75.0658 76.875 74.5 76.875ZM74.5 71.25C73.9342 71.25 73.557 70.875 73.557 70.3125V68.4375C73.557 67.875 73.9342 67.5 74.5 67.5C75.0658 67.5 75.443 67.875 75.443 68.4375V70.3125C75.443 70.875 75.0658 71.25 74.5 71.25ZM74.5 65.625C73.9342 65.625 73.557 65.25 73.557 64.6875V62.8125C73.557 62.25 73.9342 61.875 74.5 61.875C75.0658 61.875 75.443 62.25 75.443 62.8125V64.6875C75.443 65.25 75.0658 65.625 74.5 65.625ZM74.5 60C73.9342 60 73.557 59.625 73.557 59.0625V57.1875C73.557 56.625 73.9342 56.25 74.5 56.25C75.0658 56.25 75.443 56.625 75.443 57.1875V59.0625C75.443 59.625 75.0658 60 74.5 60ZM74.5 54.375C73.9342 54.375 73.557 54 73.557 53.4375V51.5625C73.557 51 73.9342 50.625 74.5 50.625C75.0658 50.625 75.443 51 75.443 51.5625V53.4375C75.443 54 75.0658 54.375 74.5 54.375ZM36.9671 73.3125C36.9671 72.75 37.3443 72.375 37.9101 72.375H39.7962C40.362 72.375 40.7392 72.75 40.7392 73.3125C40.7392 73.875 40.362 74.25 39.7962 74.25H37.9101C37.4386 74.25 36.9671 73.875 36.9671 73.3125ZM42.6253 73.3125C42.6253 72.75 43.0025 72.375 43.5684 72.375H45.4544C46.0203 72.375 46.3975 72.75 46.3975 73.3125C46.3975 73.875 46.0203 74.25 45.4544 74.25H43.5684C43.0968 74.25 42.6253 73.875 42.6253 73.3125ZM48.2835 73.3125C48.2835 72.75 48.6608 72.375 49.2266 72.375H51.1127C51.6785 72.375 52.0557 72.75 52.0557 73.3125C52.0557 73.875 51.6785 74.25 51.1127 74.25H49.2266C48.7551 74.25 48.2835 73.875 48.2835 73.3125ZM74.5 48.75C73.9342 48.75 73.557 48.375 73.557 47.8125V45.9375C73.557 45.375 73.9342 45 74.5 45C75.0658 45 75.443 45.375 75.443 45.9375V47.8125C75.443 48.375 75.0658 48.75 74.5 48.75ZM74.5 43.125C73.9342 43.125 73.557 42.75 73.557 42.1875V40.3125C73.557 39.75 73.9342 39.375 74.5 39.375C75.0658 39.375 75.443 39.75 75.443 40.3125V42.1875C75.443 42.75 75.0658 43.125 74.5 43.125ZM74.5 37.5C73.9342 37.5 73.557 37.125 73.557 36.5625V34.6875C73.557 34.125 73.9342 33.75 74.5 33.75C75.0658 33.75 75.443 34.125 75.443 34.6875V36.5625C75.443 37.125 75.0658 37.5 74.5 37.5ZM74.5 31.875C73.9342 31.875 73.557 31.5 73.557 30.9375V29.0625C73.557 28.5 73.9342 28.125 74.5 28.125C75.0658 28.125 75.443 28.5 75.443 29.0625V30.9375C75.443 31.5 75.0658 31.875 74.5 31.875ZM74.5 26.25C73.9342 26.25 73.557 25.875 73.557 25.3125V23.4375C73.557 22.875 73.9342 22.5 74.5 22.5C75.0658 22.5 75.443 22.875 75.443 23.4375V25.3125C75.443 25.875 75.0658 26.25 74.5 26.25ZM74.5 20.625C73.9342 20.625 73.557 20.25 73.557 19.6875V17.8125C73.557 17.25 73.9342 16.875 74.5 16.875C75.0658 16.875 75.443 17.25 75.443 17.8125V19.6875C75.443 20.25 75.0658 20.625 74.5 20.625ZM74.5 15C73.9342 15 73.557 14.625 73.557 14.0625V12.1875C73.557 11.625 73.9342 11.25 74.5 11.25C75.0658 11.25 75.443 11.625 75.443 12.1875V14.0625C75.443 14.625 75.0658 15 74.5 15ZM67.8987 43.25H55.6392C55.0734 43.25 54.6962 42.875 54.6962 42.3125V37.5C54.6962 36.9375 55.0734 36.5625 55.6392 36.5625H67.8987C68.4646 36.5625 68.8418 36.9375 68.8418 37.5V42.3125C68.8418 42.875 68.4646 43.25 67.8987 43.25ZM66.9557 38.4375H56.5823V41.375H66.9557V38.4375ZM67.993 27.1875H41.2108C40.7392 27.1875 40.362 26.8125 40.362 26.25C40.362 25.6875 40.7392 25.3125 41.2108 25.3125H67.993C68.4646 25.3125 68.8418 25.6875 68.8418 26.25C68.8418 26.8125 68.4646 27.1875 67.993 27.1875ZM53.6589 22.5H41.2108C40.7392 22.5 40.362 22.125 40.362 21.5625C40.362 21 40.7392 20.625 41.2108 20.625H53.6589C54.1304 20.625 54.5076 21 54.5076 21.5625C54.6019 22.125 54.2247 22.5 53.6589 22.5ZM50.924 37.5V42.3125C50.924 42.875 50.5468 43.25 49.981 43.25H37.7215C37.1557 43.25 36.7785 42.875 36.7785 42.3125V37.5C36.7785 36.9375 37.1557 36.5625 37.7215 36.5625H49.981C50.5468 36.5625 50.924 36.9375 50.924 37.5ZM49.038 38.4375H38.6646V41.375H49.038V38.4375ZM32.0633 43.25H19.8038C19.238 43.25 18.8608 42.875 18.8608 42.3125V37.5C18.8608 36.9375 19.238 36.5625 19.8038 36.5625H32.0633C32.6291 36.5625 33.0063 36.9375 33.0063 37.5V42.3125C33.0063 42.875 32.6291 43.25 32.0633 43.25ZM31.1203 38.4375H20.7468V41.375H31.1203V38.4375ZM68.3703 46.875C68.9361 46.875 69.3133 47.25 69.3133 51.5625V76.875C69.3133 77.5312 68.9361 77.8125 68.3703 77.8125H18.8608C18.2949 77.8125 17.9177 77.4375 17.9177 76.875V51.5625C17.9177 47.25 18.2949 46.875 18.8608 46.875H68.3703ZM19.8038 75.9375H67.4272V71.25H19.8038V75.9375ZM19.8038 69.375H67.4272V48.75H19.8038V69.375ZM74.5 3.75C73.9342 3.75 73.557 3.375 73.557 2.8125V0.9375C73.557 0.375 73.9342 0 74.5 0C75.0658 0 75.443 0.375 75.443 0.9375V2.8125C75.443 3.375 75.0658 3.75 74.5 3.75ZM74.5 101.25C75.0658 101.25 75.443 101.625 75.443 102.188V104.062C75.443 104.625 75.0658 105 74.5 105C73.9342 105 73.557 104.625 73.557 104.062V102.188C73.557 101.625 73.9342 101.25 74.5 101.25ZM36.4013 27.9375H31.5918V25.3125H35.8354V23.3438H31.4975V20.9062H36.4013V18.8438H28.857V30H36.307V27.9375H36.4013ZM23.4816 28.2188C22.8215 28.2188 22.35 28.0312 21.9728 27.75C21.6899 27.4688 21.5013 27 21.5013 26.4375H18.8608C18.8608 27.1875 19.0494 27.8438 19.4266 28.4062C19.8038 28.9688 20.3696 29.4375 21.0297 29.7188C21.7842 30 22.5386 30.1875 23.3873 30.1875C24.6133 30.1875 25.6506 29.9062 26.4051 29.3438C27.1595 28.7812 27.5367 28.0312 27.5367 27C27.5367 25.7812 26.9709 24.8438 25.7449 24.0938C25.2734 23.8125 24.6133 23.5312 23.8589 23.25C23.1044 22.9688 22.5386 22.7812 22.2557 22.5C21.9728 22.2188 21.7842 22.0312 21.7842 21.75C21.7842 21.375 21.8785 21.1875 22.1614 20.9062C22.4443 20.7188 22.8215 20.625 23.293 20.625C23.7646 20.625 24.1418 20.7188 24.4247 21C24.7076 21.2812 24.8019 21.5625 24.8019 22.0312H27.4424C27.4424 21.375 27.2538 20.7188 26.8766 20.25C26.4994 19.6875 26.0278 19.3125 25.462 19.0312C24.8019 18.75 24.1418 18.5625 23.3873 18.5625C22.5386 18.5625 21.8785 18.6562 21.2184 18.9375C20.5582 19.2188 20.0867 19.5938 19.7095 20.0625C19.3323 20.5312 19.1437 21.0938 19.1437 21.6562C19.1437 22.875 19.8038 23.9062 21.3127 24.5625C21.7842 24.75 22.35 25.0312 23.0101 25.2188C23.6703 25.5 24.1418 25.6875 24.4247 25.875C24.7076 26.0625 24.8019 26.4375 24.8019 26.8125C24.8019 27.1875 24.7076 27.4688 24.4247 27.6562C24.2361 28.125 23.9532 28.2188 23.4816 28.2188Z" fill="url(#paint0_linear)"/>
<defs>
<linearGradient id="paint0_linear" x1="10" y1="105" x2="138.5" y2="105" gradientUnits="userSpaceOnUse">
<stop stop-color="#5F58AC"/>
<stop offset="1" stop-color="#9055A4"/>
</linearGradient>
</defs>
</svg>
