<?xml version="1.0" encoding="utf-8"?>
<!-- Generator: Adobe Illustrator 23.0.2, SVG Export Plug-In . SVG Version: 6.00 Build 0)  -->
<svg version="1.1" id="Слой_1" xmlns="http://www.w3.org/2000/svg" xmlns:xlink="http://www.w3.org/1999/xlink" x="0px" y="0px"
	 viewBox="0 0 149 105" style="enable-background:new 0 0 149 105;" xml:space="preserve">
<style type="text/css">
	.st0{fill:url(#SVGID_1_);}
</style>
<linearGradient id="SVGID_1_" gradientUnits="userSpaceOnUse" x1="17" y1="54.5" x2="138" y2="54.5" gradientTransform="matrix(1 0 0 -1 0 107)">
	<stop  offset="0" style="stop-color:#5F58AC"/>
	<stop  offset="1" style="stop-color:#9055A4"/>
</linearGradient>
<path class="st0" d="M144.1,97.5H4c-2.3,0-4-1.8-4-4v-0.4c0-2.3,1.8-4,4-4h140.1c2.3,0,4,1.8,4,4v0.4
	C148.1,95.7,146.3,97.5,144.1,97.5z M146.3,93.1c0-1.2-0.9-2.2-2.2-2.2H4c-1.2,0-2.2,0.9-2.2,2.2v0.4c0,1.2,0.9,2.2,2.2,2.2h140.1
	c1.2,0,2.2-0.9,2.2-2.2V93.1z M135,86.3H14.1c-2.6,0-4.7-2.1-4.7-4.7V12.2c0-2.6,2.1-4.7,4.7-4.7H135c2.6,0,4.7,2.1,4.7,4.7v69.4
	C139.7,84.2,137.6,86.3,135,86.3z M137.8,12.2c0-1.6-1.2-2.8-2.8-2.8H14.1c-1.6,0-2.8,1.2-2.8,2.8v69.4c0,1.6,1.2,2.8,2.8,2.8H135
	c1.6,0,2.8-1.2,2.8-2.8V12.2z M124.5,25.9c-0.2,0.3-0.5,0.4-0.8,0.4h-10.9H42.6c-0.6,0-0.9-0.4-0.9-0.9v-7.5c0-0.6,0.4-0.9,0.9-0.9
	h70.3h10.9c0.3,0,0.6,0.1,0.8,0.4l2.8,3.8c0.3,0.4,0.3,0.8,0,1.1L124.5,25.9z M111.9,18.8H43.5v5.6h68.4V18.8z M123.3,18.8h-9.5v5.6
	h9.5l2.1-2.8L123.3,18.8z M40.1,58.1h-1.9c-0.6,0-1.3-0.1-1.3-0.7v-1.9c0-0.6,0.4-0.9,0.9-0.9s0.9,0.4,0.9,0.9v0.7h1.3
	c0.6,0,0.9,0.4,0.9,0.9S40.7,58.1,40.1,58.1z M40.1,34.7h-1.3v0.6c0,0.6-0.4,0.9-0.9,0.9s-0.9-0.4-0.9-0.9v-1.9
	c0-0.6,0.8-0.6,1.3-0.6h1.9c0.6,0,0.9,0.4,0.9,0.9S40.7,34.7,40.1,34.7z M37.9,39.4c0.6,0,0.9,0.4,0.9,0.9v3.8
	c0,0.6-0.4,0.9-0.9,0.9s-0.9-0.4-0.9-0.9v-3.8C36.9,39.8,37.3,39.4,37.9,39.4z M37.9,46.9c0.6,0,0.9,0.4,0.9,0.9v3.8
	c0,0.6-0.4,0.9-0.9,0.9s-0.9-0.4-0.9-0.9v-3.8C36.9,47.3,37.3,46.9,37.9,46.9z M44.4,32.8h3.8c0.6,0,0.9,0.4,0.9,0.9
	s-0.4,0.9-0.9,0.9h-3.8c-0.6,0-0.9-0.4-0.9-0.9S43.9,32.8,44.4,32.8z M51.9,34.7c-0.6,0-0.9-0.4-0.9-0.9s0.4-0.9,0.9-0.9h3.8
	c0.6,0,0.9,0.4,0.9,0.9s-0.4,0.9-0.9,0.9H51.9z M59.4,34.7c-0.6,0-0.9-0.4-0.9-0.9s0.4-0.9,0.9-0.9h3.8c0.6,0,0.9,0.4,0.9,0.9
	s-0.4,0.9-0.9,0.9H59.4z M66.9,34.7c-0.6,0-0.9-0.4-0.9-0.9s0.4-0.9,0.9-0.9h3.8c0.6,0,0.9,0.4,0.9,0.9s-0.4,0.9-0.9,0.9H66.9z
	 M74.4,34.7c-0.6,0-0.9-0.4-0.9-0.9s0.4-0.9,0.9-0.9h3.8c0.6,0,0.9,0.4,0.9,0.9s-0.4,0.9-0.9,0.9H74.4z M81.9,34.7
	c-0.6,0-0.9-0.4-0.9-0.9s0.4-0.9,0.9-0.9h3.8c0.6,0,0.9,0.4,0.9,0.9s-0.4,0.9-0.9,0.9H81.9z M42.6,38.4h42.2c0.6,0,0.9,0.4,0.9,0.9
	v3.8c0,0.6-0.4,0.9-0.9,0.9H42.6c-0.6,0-0.9-0.4-0.9-0.9v-3.8C41.6,38.8,42,38.4,42.6,38.4z M43.5,42.2h40.3v-1.9H43.5V42.2z
	 M42.6,46.9h17.8c0.6,0,0.9,0.4,0.9,0.9s-0.4,0.9-0.9,0.9H42.6c-0.6,0-0.9-0.4-0.9-0.9S42,46.9,42.6,46.9z M42.6,50.6h24.4
	c0.6,0,0.9,0.4,0.9,0.9s-0.4,0.9-0.9,0.9H42.6c-0.6,0-0.9-0.4-0.9-0.9S42,50.6,42.6,50.6z M43.5,58.1c-0.6,0-0.9-0.4-0.9-0.9
	s0.4-0.9,0.9-0.9h3.8c0.6,0,0.9,0.4,0.9,0.9s-0.4,0.9-0.9,0.9H43.5z M51.9,58.1c-0.6,0-0.9-0.4-0.9-0.9s0.4-0.9,0.9-0.9h3.8
	c0.6,0,0.9,0.4,0.9,0.9s-0.4,0.9-0.9,0.9H51.9z M59.4,58.1c-0.6,0-0.9-0.4-0.9-0.9s0.4-0.9,0.9-0.9h3.8c0.6,0,0.9,0.4,0.9,0.9
	s-0.4,0.9-0.9,0.9H59.4z M42.6,63.8h42.2c0.6,0,0.9,0.4,0.9,0.9v3.8c0,0.6-0.4,0.9-0.9,0.9H42.6c-0.6,0-0.9-0.4-0.9-0.9v-3.8
	C41.6,64.1,42,63.8,42.6,63.8z M43.5,67.5h40.3v-1.9H43.5V67.5z M42.6,72.2h5.6h0.9c0.6,0,0.9,0.4,0.9,0.9s-0.4,0.9-0.9,0.9h-0.9
	h-5.6c-0.6,0-0.9-0.4-0.9-0.9S42,72.2,42.6,72.2z M42.6,75.9H51c0.6,0,0.9,0.4,0.9,0.9s-0.4,0.9-0.9,0.9h-8.4
	c-0.6,0-0.9-0.4-0.9-0.9S42,75.9,42.6,75.9z M52.9,72.2h38.4c0.6,0,0.9,0.4,0.9,0.9s-0.4,0.9-0.9,0.9H52.9c-0.6,0-0.9-0.4-0.9-0.9
	S52.3,72.2,52.9,72.2z M54.8,75.9h9.4c0.6,0,0.9,0.4,0.9,0.9s-0.4,0.9-0.9,0.9h-9.4c-0.6,0-0.9-0.4-0.9-0.9S54.2,75.9,54.8,75.9z
	 M88.5,57.2c0-0.6,0.4-0.9,0.9-0.9h3.8c0.6,0,0.9,0.4,0.9,0.9s-0.4,0.9-0.9,0.9h-3.8C88.9,58.1,88.5,57.8,88.5,57.2z M108.2,58.1
	h-3.8c-0.6,0-0.9-0.4-0.9-0.9s0.4-0.9,0.9-0.9h3.8c0.6,0,0.9,0.4,0.9,0.9S108.8,58.1,108.2,58.1z M100.7,56.3c0.6,0,0.9,0.4,0.9,0.9
	s-0.4,0.9-0.9,0.9h-3.8c-0.6,0-0.9-0.4-0.9-0.9s0.4-0.9,0.9-0.9H100.7z M85.7,56.3c0.6,0,0.9,0.4,0.9,0.9s-0.4,0.9-0.9,0.9h-3.8
	c-0.6,0-0.9-0.4-0.9-0.9s0.4-0.9,0.9-0.9H85.7z M78.2,56.3c0.6,0,0.9,0.4,0.9,0.9s-0.4,0.9-0.9,0.9h-3.8c-0.6,0-0.9-0.4-0.9-0.9
	s0.4-0.9,0.9-0.9H78.2z M70.7,58.1h-3.8c-0.6,0-0.9-0.4-0.9-0.9s0.4-0.9,0.9-0.9h3.8c0.6,0,0.9,0.4,0.9,0.9S71.3,58.1,70.7,58.1z
	 M63.2,47.8c0-0.6,0.4-0.9,0.9-0.9h8.4h0.9c0.6,0,0.9,0.4,0.9,0.9s-0.4,0.9-0.9,0.9h-0.9h-8.4C63.6,48.8,63.2,48.4,63.2,47.8z
	 M45.8,20.6h17.8c0.6,0,0.9,0.4,0.9,0.9s-0.4,0.9-0.9,0.9H45.8c-0.6,0-0.9-0.4-0.9-0.9S45.3,20.6,45.8,20.6z M66.5,21.6
	c0-0.6,0.4-0.9,0.9-0.9h8.4h0.9c0.6,0,0.9,0.4,0.9,0.9s-0.4,0.9-0.9,0.9h-0.9h-8.4C66.8,22.5,66.5,22.1,66.5,21.6z M89.4,34.7
	c-0.6,0-0.9-0.4-0.9-0.9s0.4-0.9,0.9-0.9h3.8c0.6,0,0.9,0.4,0.9,0.9s-0.4,0.9-0.9,0.9H89.4z M96.9,34.7c-0.6,0-0.9-0.4-0.9-0.9
	s0.4-0.9,0.9-0.9h3.8c0.6,0,0.9,0.4,0.9,0.9s-0.4,0.9-0.9,0.9H96.9z M104.4,34.7c-0.6,0-0.9-0.4-0.9-0.9s0.4-0.9,0.9-0.9h3.8
	c0.6,0,0.9,0.4,0.9,0.9s-0.4,0.9-0.9,0.9H104.4z M109.1,47.8c0,0.6-0.4,0.9-0.9,0.9H77.3c-0.6,0-0.9-0.4-0.9-0.9s0.4-0.9,0.9-0.9
	h30.9C108.8,46.9,109.1,47.3,109.1,47.8z M95.1,72.2h13.1c0.6,0,0.9,0.4,0.9,0.9s-0.4,0.9-0.9,0.9H95.1c-0.6,0-0.9-0.4-0.9-0.9
	S94.5,72.2,95.1,72.2z M111.8,32.8h1.9c0.6,0,1,0,1,0.6v1.9c0,0.6-0.4,0.9-0.9,0.9c-0.6,0-0.9-0.4-0.9-0.9v-0.6h-1
	c-0.6,0-0.9-0.4-0.9-0.9S111.4,32.8,111.8,32.8z M113.8,44.1c-0.6,0-0.9-0.4-0.9-0.9v-3.8c0-0.6,0.4-0.9,0.9-0.9
	c0.6,0,0.9,0.4,0.9,0.9v3.8C114.8,43.7,114.4,44.1,113.8,44.1z M114.8,50.6c0,0.6-0.4,0.9-0.9,0.9c-0.6,0-0.9-0.4-0.9-0.9v-3.8
	c0-0.6,0.4-0.9,0.9-0.9c0.6,0,0.9,0.4,0.9,0.9V50.6z M111.8,56.3h1v-0.7c0-0.6,0.4-0.9,0.9-0.9c0.6,0,0.9,0.4,0.9,0.9v1.9
	c0,0.6-0.5,0.7-1,0.7h-1.9c-0.6,0-0.9-0.4-0.9-0.9S111.4,56.3,111.8,56.3z M38.1,26.1h-4.8v-2.6h4.3v-2h-4.3V19h4.9V17h-7.5v11.2
	h7.4V26.1z M25.2,26.3c-0.7,0-1.1-0.2-1.5-0.5c-0.3-0.3-0.5-0.8-0.5-1.3h-2.6c0,0.8,0.2,1.4,0.6,2c0.4,0.6,0.9,1,1.6,1.3
	c0.8,0.3,1.5,0.5,2.3,0.5c1.2,0,2.3-0.3,3-0.8c0.8-0.6,1.1-1.3,1.1-2.3c0-1.2-0.6-2.2-1.8-2.9c-0.5-0.3-1.1-0.6-1.9-0.8
	s-1.3-0.5-1.6-0.8s-0.5-0.5-0.5-0.8c0-0.4,0.1-0.6,0.4-0.8c0.3-0.2,0.7-0.3,1.1-0.3c0.5,0,0.8,0.1,1.1,0.4c0.3,0.3,0.4,0.6,0.4,1
	h2.6c0-0.7-0.2-1.3-0.6-1.8c-0.4-0.6-0.8-0.9-1.4-1.2c-0.6-0.2-1.2-0.3-2-0.3c-0.8,0-1.5,0.1-2.2,0.4c-0.7,0.3-1.1,0.7-1.5,1.1
	S21,19.4,21,20c0,1.2,0.7,2.3,2.2,2.9c0.5,0.2,1,0.5,1.7,0.7c0.7,0.3,1.1,0.5,1.4,0.7s0.4,0.6,0.4,0.9s-0.1,0.7-0.4,0.8
	C26,26.3,25.7,26.3,25.2,26.3z"/>
</svg>
