<?xml version="1.0" encoding="utf-8"?>
<!-- Generator: Adobe Illustrator 23.0.2, SVG Export Plug-In . SVG Version: 6.00 Build 0)  -->
<svg version="1.1" id="Слой_1" xmlns="http://www.w3.org/2000/svg" xmlns:xlink="http://www.w3.org/1999/xlink" x="0px" y="0px"
	 viewBox="0 0 149 105" style="enable-background:new 0 0 149 105;" xml:space="preserve">
<style type="text/css">
	.st0{fill:url(#SVGID_1_);}
</style>
<linearGradient id="SVGID_1_" gradientUnits="userSpaceOnUse" x1="10" y1="54.5" x2="138" y2="54.5" gradientTransform="matrix(1 0 0 -1 0 107)">
	<stop  offset="0" style="stop-color:#5F58AC"/>
	<stop  offset="1" style="stop-color:#9055A4"/>
</linearGradient>
<path class="st0" d="M144.1,97.5H4c-2.3,0-4-1.8-4-4v-0.4c0-2.3,1.8-4,4-4h140.1c2.3,0,4,1.8,4,4v0.4
	C148.1,95.7,146.3,97.5,144.1,97.5z M146.3,93.1c0-1.2-0.9-2.2-2.2-2.2H4c-1.2,0-2.2,0.9-2.2,2.2v0.4c0,1.2,0.9,2.2,2.2,2.2h140.1
	c1.2,0,2.2-0.9,2.2-2.2V93.1z M135,86.3H14.1c-2.6,0-4.7-2.1-4.7-4.7V12.2c0-2.6,2.1-4.7,4.7-4.7H135c2.6,0,4.7,2.1,4.7,4.7v69.4
	C139.7,84.2,137.6,86.3,135,86.3z M137.8,12.2c0-1.6-1.2-2.8-2.8-2.8H14.1c-1.6,0-2.8,1.2-2.8,2.8v69.4c0,1.6,1.2,2.8,2.8,2.8H135
	c1.6,0,2.8-1.2,2.8-2.8V12.2z M119.3,64.5c-0.5,0.6-1.1,0.9-1.8,0.9c-0.1,0-0.2,0-0.3,0c-0.8-0.1-1.5-0.7-1.8-1.4l-7-17.3
	c-0.3-0.8-0.2-1.6,0.3-2.3c0.5-0.7,1.3-1,2.2-0.8l14,2c0.2,0,0.4,0,0.5,0l3.8,0.6c0.8,0.1,1.5,0.7,1.8,1.4c0.3,0.8,0.2,1.6-0.3,2.3
	L119.3,64.5z M110.3,46.3L117,63l5-11.7L110.3,46.3z M114.2,45.9l8.5,3.6l0.9-2.3L114.2,45.9z M120.1,60.6L126,53l-2.3-0.9
	L120.1,60.6z M129.4,48.3c0-0.1-0.1-0.3-0.4-0.3l-3.5-0.5l-1.1,2.7l2.7,1.1l2.2-2.7C129.5,48.5,129.4,48.3,129.4,48.3z M122.2,35.2
	c-0.5,0-0.9-0.4-0.9-0.9c0-0.5,0.4-0.9,0.9-0.9c0.5,0,0.9,0.4,0.9,0.9C123.1,34.8,122.7,35.2,122.2,35.2z M112.4,22.3
	c-0.5,0-0.9-0.4-0.9-0.9c0-0.5,0.4-0.9,0.9-0.9c0.5,0,0.9,0.4,0.9,0.9C113.3,21.9,112.9,22.3,112.4,22.3z M48.9,25.3
	c-0.5,0-0.9-0.4-0.9-0.9c0-0.5,0.4-0.9,0.9-0.9c0.5,0,0.9,0.4,0.9,0.9S49.5,25.3,48.9,25.3z M43.7,47.8c0,0.5-0.4,0.9-0.9,0.9
	c-0.5,0-0.9-0.4-0.9-0.9c0-0.5,0.4-0.9,0.9-0.9C43.2,46.9,43.7,47.3,43.7,47.8z M40.7,40l-10.9,4.7c-0.8,0.3-1.4,0.5-2.2,0.5
	s-1.4-0.1-2.1-0.4c-1.4-0.6-2.4-1.6-3.1-3l-4.7-10.9c-0.6-1.4-0.6-2.9,0-4.3s1.6-2.4,3-3.1l10.9-4.7c1.4-0.6,2.9-0.6,4.3,0
	c1.4,0.6,2.4,1.6,3.1,3l4.7,10.9c0.6,1.4,0.6,2.9,0,4.3C43.1,38.3,42.1,39.4,40.7,40z M41.9,33.4l-4.7-10.9c-0.6-1.4-2-2.3-3.5-2.3
	c-0.5,0-0.9,0.1-1.5,0.3l-10.9,4.7c-0.9,0.4-1.6,1.1-2,2.1c-0.4,0.9-0.4,2,0,2.8L24.1,41c0.4,0.9,1.1,1.6,2.1,2c0.9,0.4,2,0.4,2.8,0
	l10.9-4.7c0.9-0.4,1.6-1.1,2-2.1C42.3,35.3,42.3,34.3,41.9,33.4z M36.9,32.8l1.4,1.1c0.4,0.3,0.5,0.9,0.2,1.3
	c-0.2,0.3-0.5,0.4-0.8,0.4c-0.2,0-0.4-0.1-0.6-0.2l-2.3-1.8c-0.4,0-0.8-0.2-0.8-0.6V33l-3.4-2.6c-0.4-0.3-0.5-0.9-0.2-1.3
	c0.3-0.4,0.9-0.5,1.3-0.2l3.5,2.7l2.3-0.9c0.5-0.2,1,0,1.2,0.5c0.2,0.5,0,1-0.5,1.2L36.9,32.8z M32.4,32.7c0.5-0.2,1,0,1.2,0.5
	c0.2,0.5,0,1-0.5,1.2l-4.1,1.8c-0.2,0.2-0.4,0.3-0.7,0.3c0,0,0,0-0.1,0h-0.1h0.1c0.5,0.1,0.8,0.6,0.8,1L29,39.1
	c-0.1,0.5-0.5,0.8-0.9,0.8h-0.1c-0.5-0.1-0.8-0.6-0.8-1l0.2-1.6c0-0.2,0.1-0.4,0.3-0.6l-1.9,0.8c-0.1,0.1-0.3,0.1-0.4,0.1
	c-0.4,0-0.8-0.2-0.8-0.6c-0.2-0.5,0-1,0.5-1.2l2.5-1.1l0.8-6.1l-1.7-1.3c-0.4-0.3-0.5-0.9-0.2-1.3c0.3-0.4,0.9-0.5,1.3-0.2l0.8,0.7
	l0.2-1.2c0.1-0.5,0.6-0.8,1-0.8c0.5,0.1,0.8,0.6,0.8,1l-1,8.4L32.4,32.7z M29.2,54.5c0.5,0,0.9,0.4,0.9,0.9c0,0.5-0.4,0.9-0.9,0.9
	c-0.5,0-0.9-0.4-0.9-0.9C28.2,54.8,28.6,54.5,29.2,54.5z M102.9,67.5c0.6,0,1,0.5,1,1c0,0.6-0.5,1-1,1c-0.6,0-1-0.5-1-1
	C101.9,68,102.4,67.5,102.9,67.5z M87.7,74.3c0,0.6-0.5,0.9-0.9,0.9H57.8c-0.6,0-0.9-0.5-0.9-0.9v-52c0-0.6,0.5-0.9,0.9-0.9h6
	l0.6,2.4c0.2,0.8,1,1.5,1.9,1.5h12c0.8,0,1.7-0.6,1.9-1.5l0.6-2.4h6c0.6,0,0.9,0.5,0.9,0.9v8.6h2v-8.6c0-1.6-1.3-2.9-2.9-2.9H57.8
	c-1.6,0-2.9,1.3-2.9,2.9v52c0,1.6,1.3,2.9,2.9,2.9h28.9c1.6,0,2.9-1.3,2.9-2.9v-0.9h-2V74.3z M78.3,23.3h-12l-0.5-2h12.9L78.3,23.3z
	 M65.5,28.1h2V30h-2V28.1z M69.4,28.1h2V30h-2V28.1z M73.2,28.1h2V30h-2V28.1z M77.1,28.1h2V30h-2V28.1z M85.8,40.6
	c-6.4,0-11.5,5.2-11.5,11.5s5.2,11.6,11.5,11.6s11.5-5.2,11.5-11.5C97.3,45.8,92.2,40.6,85.8,40.6z M85.8,61.8c-5,0-9.1-3.8-9.6-8.6
	h0.9v-2h-0.9c0.1-1,0.4-2.1,0.8-3l0.8,0.5l0.9-1.7L78,46.5c0.6-0.8,1.3-1.6,2.2-2.2l0.5,0.8l1.7-0.9l-0.5-0.8c0.9-0.5,2-0.8,3-0.8
	v0.9h2v-0.9c1,0.1,2.1,0.4,3,0.8l-0.5,0.8l1.7,0.9l0.5-0.8c0.8,0.6,1.6,1.3,2.2,2.2L92.9,47l0.9,1.7l0.8-0.5c0.5,0.9,0.8,2,0.8,3
	h-0.9v2h0.9C94.8,58,90.7,61.8,85.8,61.8z M87,49.6c-0.4-0.2-0.8-0.3-1.2-0.3c-1.6,0-2.9,1.3-2.9,2.9c0,1.6,1.3,2.9,2.9,2.9
	c1.6,0,2.9-1.3,2.9-2.9c0-0.5-0.1-0.8-0.3-1.2l2.8-2.8l-1.4-1.4L87,49.6z M85.8,53.2c-0.6,0-0.9-0.5-0.9-0.9c0-0.6,0.5-0.9,0.9-0.9
	c0.5,0,0.9,0.5,0.9,0.9C86.7,52.7,86.3,53.2,85.8,53.2z M85.8,47.3v-2c-3.8,0-6.8,3-6.8,6.8h2C80.9,49.5,83.1,47.3,85.8,47.3z
	 M80.9,57h9.7v2h-9.7V57z M104.2,48.3l-3.8-0.7c-0.3-0.9-0.7-1.9-1.1-2.8l2.2-3.1c0.3-0.4,0.2-0.9-0.1-1.2l-4.1-4.1
	C96.8,36,96.4,36,96,36.3l-3.1,2.2C92,38,91,37.6,90.1,37.3l-0.7-3.8c-0.1-0.5-0.5-0.8-0.9-0.8h-5.8c-0.5,0-0.8,0.4-0.9,0.8
	l-0.7,3.8c-0.9,0.3-1.9,0.7-2.8,1.1l-3.1-2.2c-0.4-0.3-0.9-0.2-1.2,0.1l-4.1,4.1c-0.4,0.4-0.4,0.8-0.1,1.2l2.2,3.1
	c-0.5,0.9-0.8,1.9-1.1,2.8L67,48.3c-0.5,0.1-0.8,0.5-0.8,0.9V55c0,0.5,0.4,0.8,0.8,0.9l3.8,0.7c0.3,0.9,0.7,1.9,1.1,2.8l-2.2,3.1
	c-0.3,0.4-0.2,0.9,0.1,1.2l4.1,4.1c0.4,0.4,0.8,0.4,1.2,0.1l3.1-2.2c0.9,0.5,1.9,0.8,2.8,1.1l0.7,3.8c0.1,0.5,0.5,0.8,0.9,0.8h5.8
	c0.5,0,0.8-0.4,0.9-0.8l0.7-3.8c0.9-0.3,1.9-0.7,2.8-1.1L96,68c0.4,0.3,0.9,0.2,1.2-0.1l4.1-4.1c0.4-0.4,0.4-0.8,0.1-1.2l-2.2-3.1
	c0.5-0.9,0.8-1.9,1.1-2.8l3.8-0.7c0.5-0.1,0.8-0.5,0.8-0.9v-5.8C105,48.8,104.6,48.4,104.2,48.3z M103,54.2l-3.6,0.6
	c-0.4,0.1-0.7,0.4-0.8,0.8c-0.3,1.2-0.8,2.3-1.4,3.5c-0.2,0.4-0.2,0.8,0,1l2.1,2.9l-2.9,2.9l-2.9-2.1c-0.3-0.2-0.8-0.3-1,0
	c-1.1,0.7-2.3,1.1-3.5,1.4c-0.4,0.1-0.7,0.4-0.8,0.8l-0.6,3.6h-4.1l-0.6-3.6c-0.1-0.4-0.4-0.7-0.8-0.8c-1.2-0.3-2.3-0.8-3.5-1.4
	c-0.3-0.2-0.8-0.2-1,0L75,65.9L72.1,63l2-3c0.2-0.3,0.3-0.8,0-1c-0.7-1.1-1.1-2.3-1.4-3.5c-0.1-0.4-0.4-0.7-0.8-0.8l-3.5-0.6v-4.1
	l3.6-0.6c0.4-0.1,0.7-0.4,0.8-0.8c0.3-1.2,0.8-2.3,1.4-3.5c0.2-0.4,0.2-0.8,0-1l-2.1-2.9l2.9-2.9l2.9,2.1c0.3,0.2,0.8,0.3,1,0
	c1.1-0.7,2.3-1.1,3.5-1.4c0.4-0.1,0.7-0.4,0.8-0.8l0.6-3.6h4.1l0.6,3.6c0.1,0.4,0.4,0.7,0.8,0.8c1.2,0.3,2.3,0.8,3.5,1.4
	c0.4,0.2,0.8,0.2,1,0l2.9-2.1l2.9,2.9l-2.1,2.9c-0.2,0.3-0.3,0.8,0,1c0.7,1.1,1.1,2.3,1.4,3.5c0.1,0.4,0.4,0.7,0.8,0.8l3.6,0.6
	L103,54.2L103,54.2z M58.8,32.9h5.8v2h-5.8V32.9z M58.8,36.8h5.8v2h-5.8V36.8z M70.6,36.5l1.4-1.4l-2-2c-0.2-0.2-0.5-0.3-0.7-0.3
	h-2.9v2H69L70.6,36.5z M71.1,71.2l2-2l-1.4-1.4l-1.7,1.7h-3.5v2h3.8C70.6,71.4,70.9,71.3,71.1,71.2z M58.8,70.4
	c0,1.6,1.3,2.9,2.9,2.9c1.6,0,2.9-1.3,2.9-2.9c0-1.6-1.3-2.9-2.9-2.9C60.1,67.6,58.8,68.8,58.8,70.4z M62.6,70.4
	c0,0.6-0.5,0.9-0.9,0.9c-0.5,0-0.9-0.5-0.9-0.9c0-0.5,0.5-0.9,0.9-0.9C62.2,69.5,62.6,69.9,62.6,70.4z"/>
</svg>
