<?xml version="1.0" encoding="utf-8"?>
<!-- Generator: Adobe Illustrator 23.0.2, SVG Export Plug-In . SVG Version: 6.00 Build 0)  -->
<svg version="1.1" id="Слой_1" xmlns="http://www.w3.org/2000/svg" xmlns:xlink="http://www.w3.org/1999/xlink" x="0px" y="0px"
	 viewBox="0 0 150 105" style="enable-background:new 0 0 150 105;" xml:space="preserve">
<style type="text/css">
	.st0{fill:url(#SVGID_1_);}
	.st1{fill:url(#SVGID_2_);}
	.st2{fill:url(#SVGID_3_);}
	.st3{fill:url(#SVGID_4_);}
	.st4{fill:url(#SVGID_5_);}
	.st5{fill:url(#SVGID_6_);}
	.st6{fill:url(#SVGID_7_);}
	.st7{fill:url(#SVGID_8_);}
	.st8{fill:url(#SVGID_9_);}
	.st9{fill:url(#SVGID_10_);}
	.st10{fill:url(#SVGID_11_);}
	.st11{fill:url(#SVGID_12_);}
	.st12{fill:url(#SVGID_13_);}
	.st13{fill:url(#SVGID_14_);}
</style>
<linearGradient id="SVGID_1_" gradientUnits="userSpaceOnUse" x1="8" y1="81.7812" x2="139.5" y2="81.7812" gradientTransform="matrix(1 0 0 -1 0 107)">
	<stop  offset="0" style="stop-color:#5F58AC"/>
	<stop  offset="0.9998" style="stop-color:#8F55A4"/>
	<stop  offset="0.9999" style="stop-color:#9055A4"/>
	<stop  offset="1" style="stop-color:#9055A4"/>
</linearGradient>
<path class="st0" d="M50.8,26.2h31c0.6,0,0.9-0.4,0.9-0.9s-0.4-0.9-0.9-0.9h-31c-0.6,0-0.9,0.4-0.9,0.9S50.3,26.2,50.8,26.2z"/>
<linearGradient id="SVGID_2_" gradientUnits="userSpaceOnUse" x1="8" y1="56.0469" x2="139.5" y2="56.0469" gradientTransform="matrix(1 0 0 -1 0 107)">
	<stop  offset="0" style="stop-color:#5F58AC"/>
	<stop  offset="0.9998" style="stop-color:#8F55A4"/>
	<stop  offset="0.9999" style="stop-color:#9055A4"/>
	<stop  offset="1" style="stop-color:#9055A4"/>
</linearGradient>
<path class="st1" d="M74.4,49.6H63c-0.4-2.7-2.7-4.8-5.6-4.8c-3.1,0-5.6,2.5-5.6,5.6c0,0.6,0.1,1,0.2,1.5l-12.6,4.7
	c-1-1.5-2.7-2.4-4.7-2.4c-3.1,0-5.6,2.5-5.6,5.6c0,2.8,2.1,5.1,4.7,5.5V75c0,0.5,0.4,0.9,0.9,0.9s0.9-0.4,0.9-0.9v-9.7
	c2.6-0.5,4.7-2.7,4.7-5.5c0-0.5-0.1-1-0.2-1.5l12.6-4.7c0.8,1.2,2.2,2.1,3.7,2.3v18.9c0,0.5,0.4,0.9,0.9,0.9c0.6,0,0.9-0.4,0.9-0.9
	V55.8c2.3-0.4,4.1-2.2,4.6-4.4h11.5c0.5,2.3,2.3,4,4.6,4.4v18.9c0,0.5,0.4,0.9,0.9,0.9s0.9-0.4,0.9-0.9V55.8
	c2.6-0.5,4.7-2.7,4.7-5.5c0-0.2,0-0.4,0-0.5l12.6-6.4c0.8,1.1,2.1,1.9,3.5,2.1v28.2c0,0.6,0.4,0.9,0.9,0.9c0.6,0,0.9-0.4,0.9-0.9
	V45.6c2.6-0.5,4.7-2.7,4.7-5.5c0-0.6-0.1-1.1-0.3-1.7l12.6-3.7c0.8,1.2,2.2,2.2,3.8,2.4v3c0,0.1,0,0.1,0,0.2c0,0.1,0,0.1,0,0.2v33.3
	c0,0.6,0.4,0.9,0.9,0.9c0.6,0,0.9-0.4,0.9-0.9V40.5c0-0.1,0-0.1,0-0.2c0-0.1,0-0.1,0-0.2v-3c2.6-0.5,4.7-2.7,4.7-5.5
	c0-3.1-2.5-5.6-5.6-5.6c-3.1,0-5.6,2.5-5.6,5.6c0,0.5,0.1,0.9,0.2,1.4L107,36.7c-1-1.3-2.6-2.3-4.5-2.3c-3.1,0-5.6,2.5-5.6,5.6
	c0,0.7,0.1,1.2,0.3,1.8L85,48c-0.9-1.9-2.8-3.3-5.2-3.3C77.2,44.7,74.8,46.8,74.4,49.6z M34.9,63.4c-2.1,0-3.8-1.7-3.8-3.8
	s1.7-3.8,3.8-3.8s3.8,1.7,3.8,3.8S36.9,63.4,34.9,63.4z M57.5,54.1c-2.1,0-3.8-1.7-3.8-3.8s1.7-3.8,3.8-3.8c2.1,0,3.8,1.7,3.8,3.8
	S59.5,54.1,57.5,54.1z M125.3,27.9c2.1,0,3.8,1.7,3.8,3.8s-1.7,3.8-3.8,3.8c-2.1,0-3.8-1.7-3.8-3.8S123.1,27.9,125.3,27.9z
	 M102.7,36.3c2.1,0,3.8,1.7,3.8,3.8s-1.7,3.8-3.8,3.8c-2.1,0-3.7-1.7-3.7-3.8S100.5,36.3,102.7,36.3z M83.8,50.3
	c0,2.1-1.7,3.8-3.8,3.8s-3.8-1.7-3.8-3.8s1.7-3.8,3.8-3.8S83.8,48.3,83.8,50.3z"/>
<linearGradient id="SVGID_3_" gradientUnits="userSpaceOnUse" x1="8" y1="78.0312" x2="139.5" y2="78.0312" gradientTransform="matrix(1 0 0 -1 0 107)">
	<stop  offset="0" style="stop-color:#5F58AC"/>
	<stop  offset="0.9998" style="stop-color:#8F55A4"/>
	<stop  offset="0.9999" style="stop-color:#9055A4"/>
	<stop  offset="1" style="stop-color:#9055A4"/>
</linearGradient>
<path class="st2" d="M50.8,29.9h9.4c0.6,0,0.9-0.4,0.9-0.9S60.8,28,60.2,28h-9.4c-0.6,0-0.9,0.4-0.9,0.9S50.3,29.9,50.8,29.9z"/>
<linearGradient id="SVGID_4_" gradientUnits="userSpaceOnUse" x1="8" y1="85.5312" x2="139.5" y2="85.5312" gradientTransform="matrix(1 0 0 -1 0 107)">
	<stop  offset="0" style="stop-color:#5F58AC"/>
	<stop  offset="0.9998" style="stop-color:#8F55A4"/>
	<stop  offset="0.9999" style="stop-color:#9055A4"/>
	<stop  offset="1" style="stop-color:#9055A4"/>
</linearGradient>
<path class="st3" d="M50.8,22.4H64c0.6,0,0.9-0.4,0.9-0.9s-0.4-0.9-0.9-0.9H50.8c-0.6,0-0.9,0.4-0.9,0.9S50.3,22.4,50.8,22.4z"/>
<linearGradient id="SVGID_5_" gradientUnits="userSpaceOnUse" x1="8" y1="84.5937" x2="139.5" y2="84.5937" gradientTransform="matrix(1 0 0 -1 0 107)">
	<stop  offset="0" style="stop-color:#5F58AC"/>
	<stop  offset="0.9998" style="stop-color:#8F55A4"/>
	<stop  offset="0.9999" style="stop-color:#9055A4"/>
	<stop  offset="1" style="stop-color:#9055A4"/>
</linearGradient>
<path class="st4" d="M18.8,23.3h1.9c0.6,0,0.9-0.4,0.9-0.9s-0.4-0.9-0.9-0.9h-1.9c-0.6,0-0.9,0.4-0.9,0.9S18.3,23.3,18.8,23.3z"/>
<linearGradient id="SVGID_6_" gradientUnits="userSpaceOnUse" x1="8" y1="43.4375" x2="139.5" y2="43.4375" gradientTransform="matrix(1 0 0 -1 0 107)">
	<stop  offset="0" style="stop-color:#5F58AC"/>
	<stop  offset="0.9998" style="stop-color:#8F55A4"/>
	<stop  offset="0.9999" style="stop-color:#9055A4"/>
	<stop  offset="1" style="stop-color:#9055A4"/>
</linearGradient>
<path class="st5" d="M18.8,64.5h1.9c0.6,0,0.9-0.4,0.9-0.9s-0.4-0.9-0.9-0.9h-1.9c-0.6,0-0.9,0.4-0.9,0.9
	C17.9,64,18.3,64.5,18.8,64.5z"/>
<linearGradient id="SVGID_7_" gradientUnits="userSpaceOnUse" x1="8" y1="33.2187" x2="139.5" y2="33.2187" gradientTransform="matrix(1 0 0 -1 0 107)">
	<stop  offset="0" style="stop-color:#5F58AC"/>
	<stop  offset="0.9998" style="stop-color:#8F55A4"/>
	<stop  offset="0.9999" style="stop-color:#9055A4"/>
	<stop  offset="1" style="stop-color:#9055A4"/>
</linearGradient>
<path class="st6" d="M18.8,74.7h1.9c0.6,0,0.9-0.4,0.9-0.9c0-0.5-0.4-0.9-0.9-0.9h-1.9c-0.6,0-0.9,0.4-0.9,0.9S18.3,74.7,18.8,74.7z
	"/>
<linearGradient id="SVGID_8_" gradientUnits="userSpaceOnUse" x1="8" y1="53.75" x2="139.5" y2="53.75" gradientTransform="matrix(1 0 0 -1 0 107)">
	<stop  offset="0" style="stop-color:#5F58AC"/>
	<stop  offset="0.9998" style="stop-color:#8F55A4"/>
	<stop  offset="0.9999" style="stop-color:#9055A4"/>
	<stop  offset="1" style="stop-color:#9055A4"/>
</linearGradient>
<path class="st7" d="M18.8,54.2h1.9c0.6,0,0.9-0.4,0.9-0.9s-0.4-0.9-0.9-0.9h-1.9c-0.6,0-0.9,0.4-0.9,0.9S18.3,54.2,18.8,54.2z"/>
<linearGradient id="SVGID_9_" gradientUnits="userSpaceOnUse" x1="8" y1="13.7188" x2="139.5" y2="13.7188" gradientTransform="matrix(1 0 0 -1 0 107)">
	<stop  offset="0" style="stop-color:#5F58AC"/>
	<stop  offset="0.9998" style="stop-color:#8F55A4"/>
	<stop  offset="0.9999" style="stop-color:#9055A4"/>
	<stop  offset="1" style="stop-color:#9055A4"/>
</linearGradient>
<path class="st8" d="M144.4,89.1H3.8c-2.3,0-3.8,2.3-3.8,4.4c0,2.3,1.8,4,4,4h141c2.3,0,4-1.8,4-4C149.1,91.3,146.5,89.1,144.4,89.1
	z M145,95.6H4c-1.2,0-2.2-0.9-2.2-2.2c0-1.1,0.8-2.5,1.9-2.5h140.6c1.2,0,2.8,1.4,2.8,2.5C147.2,94.7,146.3,95.6,145,95.6z"/>
<linearGradient id="SVGID_10_" gradientUnits="userSpaceOnUse" x1="8" y1="60.125" x2="139.5" y2="60.125" gradientTransform="matrix(1 0 0 -1 0 107)">
	<stop  offset="0" style="stop-color:#5F58AC"/>
	<stop  offset="0.9998" style="stop-color:#8F55A4"/>
	<stop  offset="0.9999" style="stop-color:#9055A4"/>
	<stop  offset="1" style="stop-color:#9055A4"/>
</linearGradient>
<path class="st9" d="M14.2,86.3h121.7c2.6,0,4.7-2.2,4.7-4.7V12.2c0-2.5-2.4-4.7-5-4.7H14.2c-2.6,0-4.7,2.1-4.7,4.7v69.1
	C9.4,83.9,11.5,86.3,14.2,86.3z M11.3,12.2c0-1.5,1.3-2.8,2.8-2.8h121.4c1.6,0,3.1,1.3,3.1,2.8v69.4c0,1.5-1.3,2.8-2.8,2.8H14.2
	c-1.6,0-2.8-1.5-2.8-3.1L11.3,12.2L11.3,12.2z"/>
<linearGradient id="SVGID_11_" gradientUnits="userSpaceOnUse" x1="8" y1="63.9687" x2="139.5" y2="63.9687" gradientTransform="matrix(1 0 0 -1 0 107)">
	<stop  offset="0" style="stop-color:#5F58AC"/>
	<stop  offset="0.9998" style="stop-color:#8F55A4"/>
	<stop  offset="0.9999" style="stop-color:#9055A4"/>
	<stop  offset="1" style="stop-color:#9055A4"/>
</linearGradient>
<path class="st10" d="M18.8,44h1.9c0.6,0,0.9-0.4,0.9-0.9s-0.4-0.9-0.9-0.9h-1.9c-0.6,0-0.9,0.4-0.9,0.9C17.9,43.5,18.3,44,18.8,44z
	"/>
<linearGradient id="SVGID_12_" gradientUnits="userSpaceOnUse" x1="8" y1="74.2812" x2="139.5" y2="74.2812" gradientTransform="matrix(1 0 0 -1 0 107)">
	<stop  offset="0" style="stop-color:#5F58AC"/>
	<stop  offset="0.9998" style="stop-color:#8F55A4"/>
	<stop  offset="0.9999" style="stop-color:#9055A4"/>
	<stop  offset="1" style="stop-color:#9055A4"/>
</linearGradient>
<path class="st11" d="M18.8,33.7h1.9c0.6,0,0.9-0.4,0.9-0.9s-0.4-0.9-0.9-0.9h-1.9c-0.6,0-0.9,0.4-0.9,0.9S18.3,33.7,18.8,33.7z"/>
<linearGradient id="SVGID_13_" gradientUnits="userSpaceOnUse" x1="8" y1="81.5938" x2="139.5" y2="81.5938" gradientTransform="matrix(1 0 0 -1 0 107)">
	<stop  offset="0" style="stop-color:#5F58AC"/>
	<stop  offset="0.9998" style="stop-color:#8F55A4"/>
	<stop  offset="0.9999" style="stop-color:#9055A4"/>
	<stop  offset="1" style="stop-color:#9055A4"/>
</linearGradient>
<path class="st12" d="M44.4,29h-4.8v-2.7H44v-2h-4.3v-2.3h4.9v-2.2h-7.4V31h7.3V29z"/>
<linearGradient id="SVGID_14_" gradientUnits="userSpaceOnUse" x1="8" y1="81.6875" x2="139.5" y2="81.6875" gradientTransform="matrix(1 0 0 -1 0 107)">
	<stop  offset="0" style="stop-color:#5F58AC"/>
	<stop  offset="0.9998" style="stop-color:#8F55A4"/>
	<stop  offset="0.9999" style="stop-color:#9055A4"/>
	<stop  offset="1" style="stop-color:#9055A4"/>
</linearGradient>
<path class="st13" d="M31.7,29.2c-0.7,0-1.1-0.2-1.5-0.5c-0.3-0.3-0.5-0.8-0.5-1.3h-2.6c0,0.8,0.2,1.4,0.6,2s0.9,1,1.6,1.3
	c0.8,0.3,1.5,0.5,2.3,0.5c1.2,0,2.3-0.3,3-0.8s1.1-1.3,1.1-2.3c0-1.2-0.6-2.2-1.8-2.9c-0.5-0.3-1.1-0.6-1.9-0.8
	c-0.8-0.3-1.3-0.5-1.6-0.8C30.2,23.2,30,23,30,22.7c0-0.4,0.1-0.6,0.4-0.8c0.3-0.2,0.7-0.3,1.1-0.3c0.5,0,0.8,0.1,1.1,0.4
	c0.3,0.3,0.4,0.6,0.4,1h2.6c0-0.7-0.2-1.3-0.6-1.8c-0.4-0.6-0.8-0.9-1.4-1.2c-0.7-0.3-1.3-0.5-2.1-0.5c-0.8,0-1.5,0.1-2.2,0.4
	c-0.7,0.3-1.1,0.7-1.5,1.1c-0.4,0.5-0.6,1-0.6,1.6c0,1.2,0.7,2.3,2.2,2.9c0.5,0.2,1,0.5,1.7,0.7c0.7,0.3,1.1,0.5,1.4,0.7
	s0.4,0.6,0.4,0.9s-0.1,0.7-0.4,0.8C32.4,29.1,32.1,29.2,31.7,29.2z"/>
</svg>
