<svg width="70" height="70" viewBox="0 0 70 70" fill="none" xmlns="http://www.w3.org/2000/svg">
<path d="M35 70C54.33 70 70 54.33 70 35C70 15.67 54.33 0 35 0C15.67 0 0 15.67 0 35C0 54.33 15.67 70 35 70Z" fill="url(#paint0_linear)"/>
<path d="M20.0069 26.338C20.7284 25.7758 21.7237 25.4691 22.9926 25.4691C24.2366 25.4691 25.2319 25.8013 25.9534 26.4913C26.675 27.1558 27.0482 28.127 27.0482 29.3537H34.0895C34.0895 27.5136 33.6167 25.878 32.6961 24.4468C31.7755 23.0157 30.4817 21.9167 28.7898 21.15C27.0979 20.3833 25.2568 20 23.1668 20C21.0021 20 19.0614 20.3578 17.3197 21.0734C15.5781 21.789 14.2594 22.7857 13.3139 24.0635C12.3684 25.3413 11.8957 26.8236 11.8957 28.4847C11.8957 31.8326 13.7867 34.4905 17.5934 36.4073C18.7628 36.9951 20.2557 37.6084 22.0969 38.2473C23.9381 38.8862 25.2319 39.4996 25.9534 40.0874C26.675 40.6752 27.0482 41.5186 27.0482 42.5664C27.0482 43.512 26.6998 44.2275 26.0281 44.7642C25.3563 45.2754 24.4357 45.5309 23.2663 45.5309C21.45 45.5309 20.1313 45.1476 19.3102 44.3809C18.4891 43.6142 18.0911 42.413 18.0911 40.803H11C11 42.7964 11.4976 44.5342 12.468 46.0676C13.4383 47.601 14.8814 48.8021 16.8221 49.6711C18.738 50.54 20.9026 50.9744 23.2663 50.9744C26.6252 50.9744 29.2875 50.2333 31.2282 48.7255C33.1689 47.2176 34.1392 45.1476 34.1392 42.5153C34.1392 39.2185 32.5469 36.6373 29.387 34.7461C28.0932 33.9794 26.4262 33.2383 24.3859 32.5738C22.3706 31.9093 20.9524 31.2448 20.1313 30.6315C19.3351 29.9926 18.9121 29.3026 18.9121 28.5359C18.9121 27.6414 19.2853 26.9258 20.0069 26.338ZM58 25.9547V20.3833H37.8962V50.5144H57.7761V44.9431H44.8878V37.7617H56.4076V32.446H44.8878V25.9547H58Z" fill="white"/>
<defs>
<linearGradient id="paint0_linear" x1="0" y1="0" x2="70" y2="0" gradientUnits="userSpaceOnUse">
<stop stop-color="#5F58AC"/>
<stop offset="1" stop-color="#9055A4"/>
</linearGradient>
</defs>
</svg>
