<svg width="30" height="31" viewBox="0 0 30 31" fill="none" xmlns="http://www.w3.org/2000/svg">
<path d="M14.9288 0.015625C23.1318 0.015625 29.7895 6.7291 29.7895 15.0156C29.7895 23.2956 23.1384 30.0156 14.9288 30.0156C6.71923 30.009 0.0681152 23.2956 0.0681152 15.0156C0.0681152 6.7291 6.71923 0.015625 14.9288 0.015625Z" fill="#61A8DE"/>
<path d="M21.2431 8.80733L5.39005 14.6234C4.87497 14.8094 4.90618 15.5046 5.43688 15.6515L9.46388 16.7726L10.9675 21.2619C11.1236 21.7319 11.7583 21.8739 12.1225 21.5214L14.2037 19.5191L18.2931 22.3439C18.7926 22.6915 19.5054 22.432 19.6302 21.8592L22.3357 9.67876C22.471 9.08149 21.8467 8.58702 21.2431 8.80733ZM19.2556 11.5097L11.8936 17.6391C11.8208 17.6979 11.7739 17.786 11.7635 17.8741L11.4826 20.2436C11.4722 20.322 11.3577 20.3318 11.3317 20.2583L10.1663 16.7187C10.1142 16.5572 10.1819 16.3809 10.338 16.2928L19.0371 11.216C19.2296 11.1034 19.4325 11.3629 19.2556 11.5097Z" fill="white"/>
</svg>
