<svg width="31" height="31" viewBox="0 0 31 31" fill="none" xmlns="http://www.w3.org/2000/svg">
<path d="M15.3062 0.015625H15.3004C7.10378 0.015625 0.439697 6.74219 0.439697 15.0156C0.439697 18.2969 1.48459 21.3379 3.26671 23.8047L1.41493 29.377L7.127 27.5313C9.478 29.1074 12.2818 30.0156 15.3062 30.0156C23.497 30.0156 30.161 23.2891 30.161 15.0156C30.161 6.74219 23.497 0.015625 15.3062 0.015625Z" fill="#4CAF50"/>
<path d="M23.95 21.1817C23.5901 22.2012 22.1679 23.0508 21.0359 23.2969C20.258 23.461 19.248 23.5957 15.8289 22.166C11.4635 20.3379 8.64814 15.8613 8.42755 15.5684C8.21857 15.2754 6.66284 13.1953 6.66284 11.0449C6.66284 8.89453 7.74837 7.8457 8.18374 7.39453C8.54365 7.02539 9.13575 6.85547 9.70464 6.85547C9.8904 6.85547 10.0529 6.86719 10.2039 6.87305C10.6392 6.89063 10.8598 6.91992 11.1501 7.61133C11.51 8.48438 12.3807 10.6348 12.4852 10.8574C12.5897 11.0801 12.6942 11.3789 12.5491 11.6719C12.4097 11.9707 12.2878 12.1055 12.0673 12.3574C11.8467 12.6094 11.6377 12.8086 11.4229 13.084C11.2197 13.3242 10.9933 13.5762 11.2488 14.0156C11.5042 14.4492 12.3749 15.8848 13.6578 17.0391C15.318 18.5274 16.659 19.0078 17.1408 19.2071C17.5007 19.3594 17.9245 19.3242 18.1857 19.043C18.5166 18.6797 18.9287 18.082 19.3467 17.4903C19.6427 17.0684 20.02 17.0156 20.4148 17.1621C20.8153 17.3028 22.9399 18.3633 23.3753 18.5801C23.8107 18.8028 24.1009 18.9082 24.2054 19.0899C24.3099 19.2891 24.3099 20.1563 23.95 21.1817Z" fill="#FAFAFA"/>
</svg>
