<svg width="158" height="96" viewBox="0 0 158 96" fill="none" xmlns="http://www.w3.org/2000/svg">
<path d="M153.7 96H4.3C1.9 96 0 94.1 0 91.7V91.3C0 88.9 1.9 87 4.3 87H153.7C156.1 87 158 88.9 158 91.3V91.7C158 94.1 156.1 96 153.7 96ZM156 91.3C156 90 155 89 153.7 89H4.3C3 89 2 90 2 91.3V91.7C2 93 3 94 4.3 94H153.7C155 94 156 93 156 91.7V91.3ZM144 84H15C12.2 84 10 81.8 10 79V5C10 2.2 12.2 0 15 0H144C146.8 0 149 2.2 149 5V79C149 81.8 146.8 84 144 84ZM147 5C147 3.3 145.7 2 144 2H15C13.3 2 12 3.3 12 5V79C12 80.7 13.3 82 15 82H144C145.7 82 147 80.7 147 79V5ZM140.6 43.1C140.3 43.1 140.1 43.1 139.8 43C139.2 42.8 138.7 42.4 138.4 41.8C138.3 41.5 138.2 41.3 138.2 41L135.4 40C138.3 43.1 139.5 47.5 138.4 51.8L138.6 51.9C138.9 52 139.1 52.2 139.2 52.4C139.3 52.6 139.3 52.9 139.2 53.2L138.4 55.4C138.3 55.8 137.9 56.1 137.5 56.1C137.4 56.1 137.3 56.1 137.2 56L135 55.2C134.5 55 134.2 54.5 134.4 53.9L135.2 51.7C135.3 51.4 135.5 51.2 135.7 51.1C135.9 51 136.2 51 136.5 51H136.6C137.8 46 135.2 40.7 130.5 38.6C130.4 39 130 39.3 129.6 39.3C129.5 39.3 129.4 39.3 129.3 39.2L127.1 38.4C126.8 38.3 126.6 38.1 126.5 37.9C126.4 37.7 126.4 37.4 126.4 37.2C121.4 36.1 116.2 38.6 114.1 43.3H114.2C114.5 43.4 114.7 43.6 114.8 43.8C114.9 44 114.9 44.3 114.8 44.6L114 46.8C113.9 47.2 113.5 47.5 113.1 47.5C113 47.5 112.9 47.5 112.8 47.4L110.6 46.6C110.1 46.4 109.8 45.9 110 45.3L110.8 43.1C110.9 42.8 111.1 42.6 111.3 42.5C111.5 42.4 111.8 42.4 112.1 42.5L112.3 42.6C114 38.5 117.7 35.8 121.9 35L118.8 34C118.6 34.2 118.4 34.4 118.1 34.5C117.8 34.7 117.4 34.8 117 34.8C116.7 34.8 116.5 34.8 116.2 34.7C114.9 34.3 114.3 32.9 114.7 31.6C115.1 30.3 116.5 29.7 117.8 30.1C118.4 30.3 118.9 30.7 119.2 31.3C119.3 31.6 119.4 31.9 119.4 32.2L127.2 34.9C127.4 34.5 127.9 34.2 128.4 34.4L130.6 35.2C130.9 35.3 131.1 35.5 131.2 35.7C131.3 35.9 131.3 36.1 131.3 36.3L139 38.9C139.2 38.7 139.4 38.5 139.7 38.4C140.3 38.1 140.9 38.1 141.5 38.3C142.1 38.5 142.6 38.9 142.9 39.5C143.2 40.1 143.2 40.7 143 41.3C142.5 42.5 141.6 43.1 140.6 43.1ZM136.6 53.4L136.5 53.7L136.8 53.8L136.9 53.5L136.7 53.4H136.6ZM112.4 45.1C112.3 45.1 112.3 45.1 112.4 45.1L112.2 45L112.1 45.3L112.4 45.4L112.5 45.1H112.4ZM117.2 32.4C117.2 32.3 117.1 32.2 117 32.2C116.8 32.1 116.5 32.2 116.5 32.5C116.4 32.7 116.5 33 116.8 33C116.9 33 117.1 33 117.1 33C117.1 33 117.2 32.9 117.3 32.8C117.3 32.8 117.3 32.8 117.3 32.7C117.3 32.7 117.3 32.7 117.3 32.6C117.3 32.6 117.3 32.5 117.2 32.4ZM128.6 36.8C128.6 36.9 128.6 37 128.6 37.1L128.8 37.2L128.9 36.9L128.6 36.8ZM141 40.5C141 40.4 140.9 40.3 140.8 40.3H140.7C140.6 40.3 140.6 40.3 140.5 40.3C140.5 40.3 140.4 40.4 140.3 40.5V40.6C140.3 40.6 140.3 40.6 140.3 40.7C140.3 40.8 140.3 40.9 140.3 40.9C140.3 41 140.4 41.1 140.5 41.1C140.7 41.2 141 41.1 141 40.8C141 40.7 141 40.6 141 40.5ZM129.6 20.6C129 20.6 128.6 20.1 128.6 19.6C128.6 19 129.1 18.6 129.6 18.6C130.2 18.6 130.6 19.1 130.6 19.6C130.6 20.1 130.2 20.6 129.6 20.6ZM109.9 15.9C109.3 15.9 108.9 15.4 108.9 14.9C108.9 14.3 109.4 13.9 109.9 13.9C110.5 13.9 110.9 14.4 110.9 14.9C111 15.4 110.5 15.9 109.9 15.9ZM41.5 42.5L39.5 42.6C39.5 42.6 39.5 42.6 39.4 42.6C38.9 42.6 38.4 42.2 38.4 41.7C38.4 41.1 38.8 40.7 39.3 40.6L41.3 40.5C41.8 40.5 42.3 40.9 42.4 41.4C42.5 42 42.1 42.5 41.5 42.5ZM40 21.6C39.4 21.6 39 21.1 39 20.6C39 20 39.5 19.6 40 19.6C40.6 19.6 41 20.1 41 20.6C41 21.1 40.5 21.6 40 21.6ZM39.8 34C40.1 34.4 40 35.1 39.6 35.4L38 36.5C37.8 36.6 37.6 36.7 37.4 36.7C37.1 36.7 36.8 36.6 36.6 36.3C36.3 35.9 36.4 35.2 36.8 34.9L38.4 33.7C38.9 33.4 39.5 33.5 39.8 34ZM37 43.8C36.7 45.1 36.9 46.4 37.4 47.5C37.7 48 37.5 48.6 37 48.9C36.5 49.2 35.9 49 35.6 48.5C34.8 47 34.6 45.2 35 43.5C35.3 42.2 35.1 40.8 34.5 39.5C33.8 38.1 32.6 37.2 31.1 36.7C29.6 36.3 28.1 36.4 26.7 37.2C25.4 37.9 24.4 39.1 24 40.6C23.6 42.1 23.7 43.6 24.5 44.9C25.1 46.1 26.2 47 27.4 47.4C29 48 30.4 49.2 31.2 50.7C31.5 51.2 31.3 51.8 30.8 52.1C30.7 52.2 30.5 52.2 30.3 52.2C29.9 52.2 29.6 52 29.4 51.7C28.8 50.6 27.8 49.7 26.7 49.3C25 48.7 23.6 47.4 22.7 45.9C21.7 44.1 21.5 42 22 40C22.6 38 23.9 36.4 25.7 35.4C27.5 34.4 29.6 34.2 31.6 34.8C33.6 35.4 35.2 36.7 36.2 38.6C37.1 40.1 37.4 42 37 43.8ZM33 32.5C32.9 32.9 32.5 33.2 32 33.2C31.9 33.2 31.8 33.2 31.7 33.2C31.2 33.1 30.9 32.5 31 32L31.5 30.1C31.6 29.6 32.2 29.3 32.7 29.4C33.2 29.5 33.5 30.1 33.4 30.6L33 32.5ZM24.8 34.1C24.4 34.1 24.1 33.9 23.9 33.6L23 31.8C22.7 31.3 22.9 30.7 23.4 30.4C23.9 30.1 24.5 30.3 24.8 30.8L25.7 32.6C26 33.1 25.8 33.7 25.3 33.9C25.1 34.1 25 34.1 24.8 34.1ZM24.2 49.2C24.6 49.5 24.7 50.2 24.4 50.6L23.2 52.2C23 52.5 22.7 52.6 22.4 52.6C22.2 52.6 22 52.5 21.8 52.4C21.4 52.1 21.3 51.4 21.6 51L22.8 49.4C23.1 49 23.7 48.9 24.2 49.2ZM20 39.5C19.9 39.5 19.8 39.5 19.7 39.4L17.8 38.7C17.3 38.5 17 37.9 17.2 37.4C17.4 36.9 18 36.6 18.5 36.8L20.4 37.5C20.9 37.7 21.2 38.3 21 38.8C20.8 39.2 20.5 39.5 20 39.5ZM17.7 44.7L19.6 44C20.1 43.8 20.7 44.1 20.9 44.6C21.1 45.1 20.8 45.7 20.3 45.9L18.4 46.6C18.3 46.6 18.2 46.7 18.1 46.7C17.7 46.7 17.3 46.4 17.2 46C16.9 45.5 17.1 44.9 17.7 44.7ZM26.5 66.6C27.1 66.6 27.5 67.1 27.5 67.6C27.5 68.2 27 68.6 26.5 68.6C25.9 68.6 25.5 68.1 25.5 67.6C25.5 67.1 26 66.6 26.5 66.6ZM37.8 49.8C38.3 49.5 38.9 49.7 39.2 50.2C39.5 50.7 39.3 51.3 38.8 51.6L32 55.2C31.9 55.3 31.7 55.3 31.5 55.3C31.1 55.3 30.8 55.1 30.6 54.8C30.3 54.3 30.5 53.7 31 53.4L37.8 49.8ZM38.9 52.8C39.4 52.5 40 52.7 40.3 53.2C40.6 53.7 40.4 54.3 39.9 54.6L33.9 57.8C33.8 57.9 33.6 57.9 33.4 57.9C33 57.9 32.7 57.7 32.5 57.4C32.2 56.9 32.4 56.3 32.9 56L38.9 52.8ZM38.5 56.2C39 55.9 39.6 56.1 39.9 56.6C40.2 57.1 40 57.7 39.5 58L36.8 59.4C36.7 59.5 36.5 59.5 36.3 59.5C35.9 59.5 35.6 59.3 35.4 59C35.1 58.5 35.3 57.9 35.8 57.6L38.5 56.2ZM116.8 53.8C116.9 53.5 117.1 53.3 117.3 53.2C117.5 53.1 117.8 53.1 118.1 53.2L118.6 53.4L118.1 49.1C118.1 48.8 118.1 48.6 118.3 48.3L125.9 39.2C126.2 38.9 126.6 38.8 127 38.9L127.7 39.1H127.8C127.8 39.1 127.9 39.1 127.9 39.2L128.7 39.5C129.1 39.6 129.3 40 129.3 40.4L129.8 52.2C129.8 52.5 129.7 52.7 129.5 52.9L126.5 56L127 56.2C127.3 56.3 127.5 56.5 127.6 56.7C127.7 56.9 127.7 57.2 127.7 57.5L126.8 60.1C126.7 60.4 126.5 60.6 126.3 60.7C126.2 60.8 126 60.8 125.9 60.8C125.8 60.8 125.7 60.8 125.6 60.7L116.6 57.6C116.3 57.5 116.1 57.3 116 57.1C115.9 56.9 115.9 56.6 116 56.3L116.8 53.8ZM125.2 58.5L125.4 57.8L124.3 57.4C124 57.3 123.7 57 123.6 56.7C123.5 56.4 123.6 56 123.9 55.8L127.8 51.8L127.5 43L126.1 47.2C126.8 47.8 127.1 48.8 126.8 49.8C126.5 50.8 125.5 51.4 124.5 51.4C124.2 51.4 124 51.4 123.7 51.3C122.4 50.9 121.8 49.5 122.2 48.2C122.5 47.3 123.3 46.7 124.2 46.6L125.5 42.6L120.1 49.1L120.7 54.6C120.7 54.9 120.6 55.3 120.3 55.5C120 55.7 119.7 55.8 119.3 55.7L118.2 55.3L118 56L125.2 58.5ZM124.6 48.7H124.5C124.3 48.7 124.2 48.8 124.1 49C124 49.2 124.1 49.5 124.4 49.5C124.6 49.6 124.9 49.5 124.9 49.2C124.9 49 124.8 48.8 124.6 48.7ZM129 67.5C129.6 67.5 130 68 130 68.5C130 69.1 129.5 69.5 129 69.5C128.4 69.5 128 69 128 68.5C128 68 128.4 67.5 129 67.5Z" fill="url(#paint0_linear)"/>
<path d="M54.4958 55.8704C54.6563 55.8704 54.8169 55.8704 54.9775 55.7099C55.4592 55.3887 55.6197 54.907 55.2986 54.4254C53.0507 50.4113 51.9268 46.0761 51.9268 41.4197C51.9268 26.8085 63.8085 14.7662 78.5803 14.7662C82.9155 14.7662 87.2507 15.8901 91.1042 17.8169C91.5859 18.138 92.2282 17.8169 92.3887 17.4958C92.7099 17.0141 92.3887 16.3718 92.0676 16.2113C87.7324 14.1239 83.2366 13 78.5803 13C62.8451 13 50 25.8451 50 41.5803C50 46.3972 51.2845 51.2141 53.5324 55.3887C53.8535 55.7099 54.1746 55.8704 54.4958 55.8704Z" fill="url(#paint1_linear)"/>
<path d="M68.3042 62.9352C68.1437 63.4169 68.3042 64.0592 68.7859 64.2197C71.8366 65.5042 75.2085 66.1465 78.5803 66.1465C92.2282 66.1465 103.146 55.0676 103.146 41.5803C103.146 38.5296 102.504 35.4789 101.38 32.5887C101.22 32.107 100.577 31.7859 100.096 32.107C99.6141 32.2676 99.293 32.9099 99.6141 33.3915C100.738 36.1211 101.22 38.8507 101.22 41.7408C101.22 54.2648 91.1042 64.3803 78.5803 64.3803C75.5296 64.3803 72.4789 63.738 69.5887 62.6141C69.107 62.1324 68.4648 62.4535 68.3042 62.9352Z" fill="url(#paint2_linear)"/>
<path d="M104.592 30.0197C104.431 29.538 104.11 29.0563 103.949 28.7352C103.628 28.2535 103.146 28.093 102.665 28.2535C102.183 28.5746 102.023 29.0563 102.183 29.538C102.344 30.0197 102.504 30.3408 102.825 30.8225C104.27 34.1944 105.073 37.8873 105.073 41.5803C105.073 56.1916 93.1916 68.2338 78.4197 68.2338C74.0845 68.2338 69.7493 67.1099 65.8958 65.0225C65.4141 64.7014 64.7718 65.0225 64.6113 65.3437C64.2901 65.8253 64.6113 66.4676 64.9324 66.6282C69.107 68.8761 73.7634 70 78.4197 70C94.1549 70 107 57.1549 107 41.4197C107 37.5662 106.197 33.7127 104.592 30.0197Z" fill="url(#paint3_linear)"/>
<path d="M87.5718 20.707C88.0535 20.8676 88.6958 20.707 88.8563 20.2254C89.0169 19.7437 88.8563 19.1014 88.3746 18.9408C85.3239 17.6563 81.9521 16.8535 78.5803 16.8535C64.9324 16.8535 53.8535 27.9324 53.8535 41.5803C53.8535 45.2732 54.6563 48.8056 56.262 52.0169C56.4225 52.338 56.7437 52.4986 57.0648 52.4986C57.2254 52.4986 57.3859 52.4986 57.5465 52.338C58.0282 52.1775 58.1887 51.6958 58.0282 51.2141C56.5831 48.1634 55.9408 44.9521 55.9408 41.5803C55.7803 29.0563 66.0563 18.7803 78.5803 18.7803C81.631 18.7803 84.6817 19.4225 87.5718 20.707Z" fill="url(#paint4_linear)"/>
<path d="M67.8225 53.7831L89.6592 56.3521C89.6592 56.3521 89.6592 56.3521 89.8197 56.3521C90.3014 56.3521 90.7831 56.031 90.7831 55.5493C90.7831 55.0676 90.462 54.5859 89.9803 54.4254L68.1437 51.8563C67.662 51.8563 67.1803 52.1775 67.0197 52.6592C66.8592 53.1408 67.3408 53.6225 67.8225 53.7831Z" fill="url(#paint5_linear)"/>
<path d="M89.8197 30.662L68.1437 28.093C67.662 28.093 67.1803 28.4141 67.0197 28.8958C67.0197 29.3775 67.3408 29.8592 67.8225 30.0197L89.6592 32.5887C89.6592 32.5887 89.6592 32.5887 89.8197 32.5887C90.3014 32.5887 90.7831 32.2676 90.7831 31.7859C90.7831 31.1437 90.462 30.662 89.8197 30.662Z" fill="url(#paint6_linear)"/>
<path d="M62.5239 33.231C62.3634 33.0704 62.0423 32.9099 61.8817 32.9099C61.5606 32.9099 61.4 32.9099 61.2394 33.0704C61.0789 33.231 60.9183 33.3916 60.9183 33.7127V45.4338C60.9183 45.7549 61.0789 45.9155 61.2394 46.0761C61.4 46.2366 61.7211 46.3972 61.8817 46.3972L66.0563 46.8789C66.3775 46.8789 66.538 46.8789 66.6986 46.7183C66.8592 46.5577 67.0197 46.3972 67.0197 46.0761C67.0197 45.7549 66.8592 45.5944 66.6986 45.4338C66.538 45.2732 66.2169 45.1127 66.0563 45.1127L62.8451 44.7915V33.8732C62.8451 33.5521 62.6845 33.3916 62.5239 33.231Z" fill="url(#paint7_linear)"/>
<path d="M73.9239 34.5155C73.4423 34.1944 72.8 34.0338 72.1577 33.8732C71.5155 33.8732 70.8732 33.8732 70.3915 34.0338C69.9099 34.1944 69.4282 34.5155 68.9465 34.9972C68.6254 35.4789 68.3042 36.1211 67.9831 37.0845C67.8225 37.8873 67.662 39.0113 67.662 40.2958C67.662 41.5803 67.8225 42.7042 67.9831 43.6676C68.1437 44.631 68.4648 45.2732 68.9465 45.9155C69.2676 46.5577 69.7493 46.8789 70.3915 47.2C70.8732 47.5211 71.5155 47.6817 72.1577 47.8423C72.8 47.8423 73.4423 47.8423 73.9239 47.6817C74.4056 47.5211 74.8873 47.2 75.369 46.7183C75.6901 46.2366 76.0113 45.5944 76.3324 44.631C76.493 43.8282 76.6535 42.7042 76.6535 41.4197C76.6535 40.1352 76.493 39.0113 76.3324 38.0479C76.1718 37.0845 75.8507 36.4423 75.369 35.8C74.8873 35.3183 74.4056 34.8366 73.9239 34.5155ZM74.4056 43.6676C74.2451 44.3099 74.0845 44.7916 73.9239 45.1127C73.7634 45.4338 73.4423 45.7549 73.1211 45.7549C72.8 45.9155 72.4789 45.9155 72.1577 45.9155C71.8366 45.9155 71.5155 45.7549 71.1944 45.5944C70.8732 45.4338 70.7127 45.1127 70.3915 44.7915C70.231 44.4704 70.0704 43.8282 69.9099 43.1859C69.7493 42.5437 69.7493 41.7408 69.7493 40.7775C69.7493 39.8141 69.7493 39.0113 69.9099 38.369C70.0704 37.7268 70.231 37.2451 70.3915 36.9239C70.5521 36.6028 70.8732 36.2817 71.1944 36.2817C71.5155 36.1211 71.8366 36.1211 72.1577 36.1211C72.4789 36.1211 72.8 36.2817 73.1211 36.4423C73.4423 36.6028 73.6028 36.9239 73.9239 37.2451C74.0845 37.5662 74.2451 38.2085 74.4056 38.8507C74.5662 39.493 74.5662 40.2958 74.5662 41.2592C74.5662 42.2225 74.5662 43.0254 74.4056 43.6676Z" fill="url(#paint8_linear)"/>
<path d="M81.3099 38.0479C81.4704 37.7268 81.7915 37.4056 82.1127 37.4056C82.4338 37.2451 82.7549 37.2451 83.0761 37.2451C83.5577 37.2451 84.0394 37.4056 84.2 37.7268C84.5211 38.0479 84.6817 38.2085 84.8423 38.5296C84.8423 38.6901 85.0028 38.6901 85.0028 38.8507C85.0028 39.0113 85.1634 39.0113 85.3239 39.0113C85.4845 39.0113 85.6451 39.1718 85.8056 39.1718C86.1268 39.1718 86.2873 39.1718 86.4479 39.0113C86.6085 38.8507 86.769 38.6901 86.769 38.369V37.8873C86.769 37.5662 86.6085 37.4056 86.4479 37.0845C86.2873 36.7634 85.9662 36.6028 85.8056 36.2817C85.4845 36.1211 85.1634 35.8 84.8423 35.6394C84.5211 35.4789 84.0394 35.3183 83.5577 35.3183C82.9155 35.3183 82.2732 35.3183 81.7915 35.4789C81.3099 35.6394 80.8282 35.9606 80.3465 36.4423C80.0254 36.9239 79.7042 37.5662 79.3831 38.5296C79.2225 39.3324 79.062 40.4563 79.062 41.7408C79.062 43.0254 79.2225 44.1493 79.3831 45.1127C79.5437 46.0761 79.8648 46.7183 80.3465 47.3606C80.6676 48.0028 81.1493 48.3239 81.7915 48.6451C82.2732 48.9662 82.9155 49.1268 83.5577 49.2873C84.0394 49.2873 84.5211 49.2873 85.0028 49.1268C85.4845 48.9662 85.9662 48.6451 86.2873 48.3239C86.6085 48.0028 86.9296 47.5211 87.2507 46.8789C87.4113 46.2366 87.5718 45.5944 87.5718 44.9521V43.9887C87.5718 43.6676 87.4113 43.507 87.2507 43.3465C87.0901 43.1859 86.769 43.0254 86.6085 43.0254L84.0394 42.7042C83.7183 42.7042 83.5577 42.7042 83.3972 42.8648C83.2366 43.0254 83.0761 43.1859 83.0761 43.507C83.0761 43.8282 83.2366 43.9887 83.3972 44.1493C83.5577 44.3099 83.8789 44.4704 84.0394 44.4704L85.6451 44.631C85.6451 45.1127 85.6451 45.5944 85.4845 45.9155C85.324 46.2366 85.1634 46.5577 85.0028 46.7183C84.8423 46.8789 84.5211 47.0394 84.3606 47.2C84.0394 47.3606 83.8789 47.3606 83.5577 47.3606C83.2366 47.3606 82.9155 47.2 82.5944 47.0394C82.2732 46.8789 82.1127 46.5577 81.7915 46.2366C81.631 45.9155 81.4704 45.2732 81.3099 44.631C81.1493 43.9887 81.1493 43.1859 81.1493 42.2225C81.1493 41.2592 81.1493 40.4563 81.3099 39.8141C80.9887 38.8507 81.1493 38.369 81.3099 38.0479Z" fill="url(#paint9_linear)"/>
<path d="M90.3014 37.5662C89.9803 38.0479 89.6592 38.6901 89.338 39.6535C89.1775 40.4563 89.0169 41.5803 89.0169 42.8648C89.0169 44.1493 89.1775 45.2732 89.338 46.2366C89.4986 47.2 89.8197 47.8423 90.3014 48.4845C90.6225 49.1268 91.1042 49.4479 91.7465 49.769C92.2282 50.0901 92.8704 50.2507 93.5127 50.4113C94.1549 50.4113 94.7972 50.4113 95.2789 50.2507C95.7606 50.0901 96.2423 49.769 96.7239 49.2873C97.0451 48.8056 97.3662 48.1634 97.6873 47.2C97.8479 46.3972 98.0085 45.2732 98.0085 43.9887C98.0085 42.7042 97.8479 41.5803 97.6873 40.6169C97.5268 39.6535 97.2056 39.0113 96.7239 38.369C96.4028 37.7268 95.9211 37.4056 95.2789 37.0845C94.7972 36.7634 94.1549 36.6028 93.5127 36.4423C92.8704 36.4423 92.2282 36.4423 91.7465 36.6028C91.1042 36.7634 90.7831 37.0845 90.3014 37.5662ZM91.2648 40.6169C91.4254 39.9747 91.5859 39.493 91.7465 39.1718C91.907 38.8507 92.2282 38.5296 92.5493 38.5296C92.8704 38.369 93.1916 38.369 93.5127 38.369C93.8338 38.369 94.1549 38.5296 94.4761 38.6901C94.7972 38.8507 94.9577 39.1718 95.2789 39.493C95.4394 39.8141 95.6 40.4563 95.7606 41.0986C95.9211 41.7408 95.9211 42.5437 95.9211 43.507C95.9211 44.4704 95.9211 45.2732 95.7606 45.9155C95.6 46.5577 95.4394 47.0394 95.2789 47.3606C95.1183 47.6817 94.7972 48.0028 94.4761 48.0028C94.1549 48.3239 93.8338 48.3239 93.5127 48.3239C93.1916 48.3239 92.8704 48.1634 92.5493 48.0028C92.2282 47.8423 92.0676 47.5211 91.7465 47.2C91.5859 46.8789 91.4254 46.2366 91.2648 45.5944C91.1042 44.9521 91.1042 44.1493 91.1042 43.1859C91.1042 42.062 91.1042 41.2592 91.2648 40.6169Z" fill="url(#paint10_linear)"/>
<path d="M87.893 22.7944C87.4113 22.9549 87.0901 23.2761 87.0901 23.7577C87.0901 24.2394 87.4113 24.5606 87.893 24.7211L89.4986 25.0423C92.5493 25.6845 94.7972 28.093 95.4394 30.9831L95.7606 32.5887C95.9211 33.0704 96.2423 33.3915 96.7239 33.3915C97.2056 33.3915 97.5268 33.0704 97.6873 32.5887L98.0085 30.9831C98.6507 27.9324 101.059 25.6845 103.949 25.0423L105.555 24.7211C106.037 24.5606 106.358 24.2394 106.358 23.7577C106.358 23.2761 106.037 22.9549 105.555 22.7944L103.949 22.4732C101.22 21.6704 98.8113 19.4225 98.169 16.3718L97.8479 14.7662C97.6873 14.2845 97.3662 13.9634 96.8845 13.9634C96.4028 13.9634 96.0817 14.2845 95.9211 14.7662L95.6 16.3718C94.9577 19.4225 92.5493 21.6704 89.4986 22.3127L87.893 22.7944ZM96.8845 18.6197C97.8479 20.8676 99.6141 22.6338 102.023 23.7577C99.7747 24.7211 98.0085 26.4873 96.8845 28.8958C95.9211 26.6479 94.1549 24.8817 91.7465 23.7577C93.9944 22.6338 95.9211 20.8676 96.8845 18.6197Z" fill="url(#paint11_linear)"/>
<path d="M69.7493 60.8479C70.231 60.6873 70.5521 60.3662 70.5521 59.8845C70.5521 59.4028 70.231 59.0817 69.7493 58.9211L68.1437 58.6C65.093 57.9577 62.6845 55.5493 62.0423 52.4986L61.7211 50.893C61.5606 50.4113 61.2394 50.0901 60.7577 50.0901C60.2761 50.0901 59.7944 50.4113 59.6338 50.7324L59.3127 52.338C58.6704 55.5493 56.262 57.9577 53.2113 58.6L51.6056 58.9211C51.1239 59.0817 50.8028 59.4028 50.8028 59.8845C50.8028 60.3662 51.1239 60.6873 51.6056 60.8479L53.2113 61.169C56.262 61.8113 58.6704 64.2197 59.3127 67.2704L59.6338 68.8761C59.7944 69.3577 60.1155 69.6789 60.5972 69.6789C61.0789 69.6789 61.4 69.3577 61.5606 68.8761L61.8817 67.2704C62.5239 64.2197 64.9324 61.8113 67.9831 61.169L69.7493 60.8479ZM60.5972 65.0225C59.6338 62.7747 57.8676 60.8479 55.4592 59.8845C57.8676 58.9211 59.6338 56.9944 60.5972 54.7465C61.5606 56.9944 63.4873 58.9211 65.7352 59.8845C63.4873 60.8479 61.7211 62.7747 60.5972 65.0225Z" fill="url(#paint12_linear)"/>
<defs>
<linearGradient id="paint0_linear" x1="14.8674" y1="96" x2="143.078" y2="96" gradientUnits="userSpaceOnUse">
<stop stop-color="#5F58AC"/>
<stop offset="1" stop-color="#9055A4"/>
</linearGradient>
<linearGradient id="paint1_linear" x1="14.8674" y1="96" x2="143.078" y2="96" gradientUnits="userSpaceOnUse">
<stop stop-color="#5F58AC"/>
<stop offset="1" stop-color="#9055A4"/>
</linearGradient>
<linearGradient id="paint2_linear" x1="14.8674" y1="96" x2="143.078" y2="96" gradientUnits="userSpaceOnUse">
<stop stop-color="#5F58AC"/>
<stop offset="1" stop-color="#9055A4"/>
</linearGradient>
<linearGradient id="paint3_linear" x1="14.8674" y1="96" x2="143.078" y2="96" gradientUnits="userSpaceOnUse">
<stop stop-color="#5F58AC"/>
<stop offset="1" stop-color="#9055A4"/>
</linearGradient>
<linearGradient id="paint4_linear" x1="14.8674" y1="96" x2="143.078" y2="96" gradientUnits="userSpaceOnUse">
<stop stop-color="#5F58AC"/>
<stop offset="1" stop-color="#9055A4"/>
</linearGradient>
<linearGradient id="paint5_linear" x1="14.8674" y1="96" x2="143.078" y2="96" gradientUnits="userSpaceOnUse">
<stop stop-color="#5F58AC"/>
<stop offset="1" stop-color="#9055A4"/>
</linearGradient>
<linearGradient id="paint6_linear" x1="14.8674" y1="96" x2="143.078" y2="96" gradientUnits="userSpaceOnUse">
<stop stop-color="#5F58AC"/>
<stop offset="1" stop-color="#9055A4"/>
</linearGradient>
<linearGradient id="paint7_linear" x1="14.8674" y1="96" x2="143.078" y2="96" gradientUnits="userSpaceOnUse">
<stop stop-color="#5F58AC"/>
<stop offset="1" stop-color="#9055A4"/>
</linearGradient>
<linearGradient id="paint8_linear" x1="14.8674" y1="96" x2="143.078" y2="96" gradientUnits="userSpaceOnUse">
<stop stop-color="#5F58AC"/>
<stop offset="1" stop-color="#9055A4"/>
</linearGradient>
<linearGradient id="paint9_linear" x1="14.8674" y1="96" x2="143.078" y2="96" gradientUnits="userSpaceOnUse">
<stop stop-color="#5F58AC"/>
<stop offset="1" stop-color="#9055A4"/>
</linearGradient>
<linearGradient id="paint10_linear" x1="14.8674" y1="96" x2="143.078" y2="96" gradientUnits="userSpaceOnUse">
<stop stop-color="#5F58AC"/>
<stop offset="1" stop-color="#9055A4"/>
</linearGradient>
<linearGradient id="paint11_linear" x1="14.8674" y1="96" x2="143.078" y2="96" gradientUnits="userSpaceOnUse">
<stop stop-color="#5F58AC"/>
<stop offset="1" stop-color="#9055A4"/>
</linearGradient>
<linearGradient id="paint12_linear" x1="14.8674" y1="96" x2="143.078" y2="96" gradientUnits="userSpaceOnUse">
<stop stop-color="#5F58AC"/>
<stop offset="1" stop-color="#9055A4"/>
</linearGradient>
</defs>
</svg>
