<?xml version="1.0" encoding="utf-8"?>
<!-- Generator: Adobe Illustrator 23.0.2, SVG Export Plug-In . SVG Version: 6.00 Build 0)  -->
<svg version="1.1" id="Слой_1" xmlns="http://www.w3.org/2000/svg" xmlns:xlink="http://www.w3.org/1999/xlink" x="0px" y="0px"
	 viewBox="0 0 149 105" style="enable-background:new 0 0 149 105;" xml:space="preserve">
<style type="text/css">
	.st0{fill:url(#SVGID_1_);}
</style>
<linearGradient id="SVGID_1_" gradientUnits="userSpaceOnUse" x1="12" y1="54.5" x2="140" y2="54.5" gradientTransform="matrix(1 0 0 -1 0 107)">
	<stop  offset="0" style="stop-color:#5F58AC"/>
	<stop  offset="1" style="stop-color:#9555A4"/>
</linearGradient>
<path class="st0" d="M144.1,97.5H4c-2.3,0-4-1.8-4-4v-0.4c0-2.3,1.8-4,4-4h140.1c2.3,0,4,1.8,4,4v0.4
	C148.1,95.7,146.3,97.5,144.1,97.5z M146.3,93.1c0-1.2-0.9-2.2-2.2-2.2H4c-1.2,0-2.2,0.9-2.2,2.2v0.4c0,1.2,0.9,2.2,2.2,2.2h140.1
	c1.2,0,2.2-0.9,2.2-2.2V93.1z M135,86.3H14.1c-2.6,0-4.7-2.1-4.7-4.7V12.2c0-2.6,2.1-4.7,4.7-4.7H135c2.6,0,4.7,2.1,4.7,4.7v69.4
	C139.7,84.2,137.6,86.3,135,86.3z M137.8,12.2c0-1.6-1.2-2.8-2.8-2.8H14.1c-1.6,0-2.8,1.2-2.8,2.8v69.4c0,1.6,1.2,2.8,2.8,2.8H135
	c1.6,0,2.8-1.2,2.8-2.8V12.2z M78.1,26.3H47.2c-0.6,0-0.9-0.4-0.9-0.9s0.4-0.9,0.9-0.9h30.9c0.6,0,0.9,0.4,0.9,0.9
	S78.7,26.3,78.1,26.3z M60.3,21.6H47.2c-0.6,0-0.9-0.4-0.9-0.9s0.4-0.9,0.9-0.9h13.1c0.6,0,0.9,0.4,0.9,0.9S60.8,21.6,60.3,21.6z
	 M86.3,16.9H130v22.5H86.3V16.9z M87.9,37.5h40.2V18.8H87.9V37.5z M34.3,74c-0.4,0.8-1.3,1.2-2.2,0.9l-2.1-0.7
	c-0.9-0.3-1.4-1.1-1.3-2l0.3-2.2c-0.8-0.5-1.5-1-2.1-1.6l-2.2,0.8c-0.8,0.3-2.1,0.2-2.5-0.7l-1-2c-0.5-0.8,0.1-1.9,0.8-2.4l2.2-1.5
	C24,62,24,61.1,24,60.3l-2-0.9c-0.8-0.4-1.2-1.3-0.9-2.2l0.7-2.1c0.3-0.8,1.1-1.4,2-1.2l2.3,0.4c0.5-0.7,0.9-1.2,1.6-1.8l-0.8-2.3
	c-0.3-0.8,0.1-1.7,0.9-2.2l2-1c0.8-0.5,1.8-0.3,2.2,0.5l1.5,2.2c0.7-0.1,1.4-0.2,2.2-0.2l1.1-2.3c0.3-0.7,0.9-1,1.6-1
	c0.2,0,0.4,0,0.6,0.1l2.1,0.7c0.8,0.3,1.4,1,1.2,2l-0.5,2.7c0.6,0.4,1,0.8,1.5,1.3l2.4-0.8c1.1-0.4,1.7,0.7,1.9,1l1,2
	c0.2,0.4,0.8,1.4-0.3,2.2l-2,1.4c0.1,0.7,0.2,1.4,0.2,2.1l2.4,1.1c0.8,0.4,1.2,1.3,0.9,2.2L49.2,66c-0.3,0.9-1,1.4-2,1.3l-2.5-0.4
	c-0.4,0.7-0.8,1.2-1.4,1.8l0.8,2.3c0.3,0.8,0,1.9-0.8,2.3l-2,1c-0.8,0.4-1.8,0.2-2.3-0.6l-1.4-2c-0.8,0.2-1.6,0.3-2.4,0.3L34.3,74z
	 M37.9,69.8l0.7-0.2l2.2,3l1.8-0.9l-1.2-3.6l0.5-0.4c0.7-0.7,1.3-1.4,1.8-2.3l0.3-0.6l3.7,0.6l0.7-2l-3.5-1.6v-0.7
	c0-0.9-0.1-1.9-0.3-2.8l-0.2-0.7l2.6-2l-1-1.9l-3.2,1.1l-0.4-0.5c-0.7-0.8-1.3-1.3-2.1-1.8l-0.6-0.4l0.7-3.8l-2-0.7l-1.6,3.5
	L36,51.2c-0.9-0.1-1.9,0-2.8,0.2l-0.6,0.1l-2.1-2.7l-1.9,0.9l1.2,3.4l-0.6,0.4c-0.8,0.7-1.5,1.4-2,2.3L27,56.3l-3.5-0.6l-0.7,2
	l3.1,1.5l-0.1,0.7c-0.1,1,0,2.2,0.3,3.2l0.2,0.7l-3.2,2.3c0,0-0.1,0.1-0.1,0.2l0.8,1.6c0.1,0,0.3,0,0.3,0l3.4-1.2l0.4,0.5
	c0.7,0.8,1.5,1.4,2.5,2.1l0.6,0.3l-0.5,3.3l2,0.7l1.5-3.1h0.7C35.8,70.1,36.9,70,37.9,69.8z M30.9,65.3c-2.3-2.3-2.3-6.1,0-8.3
	c1.1-1.1,2.6-1.7,4.2-1.7c1.5,0,3,0.6,4.2,1.7c2.3,2.3,2.3,6.1,0,8.3S33.3,67.5,30.9,65.3z M35.2,65.1c1,0,2.1-0.4,2.8-1.2
	c1.6-1.6,1.6-4.1,0-5.7c-1.6-1.6-4.1-1.6-5.7,0c-1.6,1.6-1.6,4.1,0,5.7C33.1,64.7,34.1,65.1,35.2,65.1z M72.4,62.2l-2,0.2
	c-0.2,0.6-0.4,1-0.7,1.6l1.1,1.6c0.5,0.8,0.4,1.7-0.2,2.3L69.4,69c-0.6,0.6-1.6,0.6-2.2,0l-1.5-1.2c-0.6,0.3-1.1,0.5-1.8,0.7
	l-0.3,1.7c-0.2,0.8-0.8,1.4-1.7,1.3l-1.8-0.1c-0.8,0-1.5-0.7-1.6-1.4l-0.2-1.5c-0.7-0.2-1.3-0.5-1.9-0.8l-1.5,1
	c-0.6,0.4-1.7,0.7-2.3,0l-1.2-1.3c-0.6-0.7-0.4-1.7,0.1-2.3l1.3-1.6c-0.3-0.6-0.5-1.2-0.7-1.8l-1.7-0.3c-0.8-0.2-1.4-0.8-1.3-1.7
	l0.1-1.8c0-0.8,0.7-1.5,1.4-1.6l1.9-0.2c0.2-0.6,0.5-1.1,0.8-1.6l-1-1.6c-0.5-0.7-0.4-1.6,0.3-2.2l1.3-1.2c0.7-0.6,1.5-0.7,2.2-0.1
	l1.6,1.3c0.5-0.2,1-0.4,1.5-0.6l0.4-2.1c0.1-0.8,0.8-1.3,1.6-1.3c0,0,0,0,0.1,0L63,47c0.8,0,1.5,0.7,1.6,1.4l0.2,2.2
	c0.5,0.2,0.8,0.4,1.3,0.7l1.7-1.1c0.7-0.5,1.3-0.3,2,0.4l1.2,1.3c0.7,0.8,0.8,1.4,0.3,2l-1.3,1.6c0.2,0.5,0.4,0.9,0.6,1.4l2.1,0.4
	c0.8,0.2,1.3,0.8,1.3,1.7l-0.1,1.8C73.8,61.4,73.2,62.1,72.4,62.2z M69,58.3l-0.1-0.6c-0.2-0.8-0.5-1.4-0.8-2.1l-0.3-0.6l1.7-2.1
	l-1-1.2l-2.3,1.6l-0.6-0.4c-0.7-0.5-1.3-0.8-2-0.9L63,51.9l-0.3-3.2h-1.5l-0.6,3.1L60,51.9c-0.8,0.1-1.5,0.4-2.2,0.8L57.3,53
	l-2.3-1.9l-1,0.9l1.7,2.4L55.2,55c-0.5,0.7-0.8,1.4-1.1,2.3l-0.2,0.6l-2.8,0.3L51,59.5l2.7,0.5l0.1,0.7c0.2,0.8,0.5,1.7,0.8,2.4
	l0.3,0.6l-2.2,2.5l0.9,0.9h0.1l2.5-1.8l0.6,0.4c0.7,0.5,1.5,0.8,2.4,1l0.7,0.2l0.3,2.7l1.4,0.1l0.5-2.7l0.7-0.1
	c0.8-0.2,1.7-0.5,2.3-0.9l0.6-0.4l2.3,2l1-0.9L67.5,64l0.4-0.6c0.4-0.7,0.8-1.4,0.9-2.3l0.2-0.7l3-0.3l0.1-1.4L69,58.3z M58.2,62.7
	c-1.8-1.8-1.8-4.6,0-6.4c0.8-0.8,2.1-1.3,3.2-1.3s2.3,0.5,3.2,1.3c1.8,1.8,1.8,4.6,0,6.4C62.8,64.5,60,64.5,58.2,62.7z M63.3,57.7
	c-1-1-2.7-1-3.8,0c-1,1-1,2.7,0,3.8c0.5,0.5,1.2,0.8,1.9,0.8c0.7,0,1.3-0.3,1.9-0.8c0.5-0.5,0.7-1.1,0.7-1.9S63.8,58.1,63.3,57.7z
	 M47.2,29.1h9.4c0.6,0,0.9,0.4,0.9,0.9s-0.4,0.9-0.9,0.9h-9.4c-0.6,0-0.9-0.4-0.9-0.9S46.7,29.1,47.2,29.1z M47.2,33.8h13.1
	c0.6,0,0.9,0.4,0.9,0.9s-0.4,0.9-0.9,0.9H47.2c-0.6,0-0.9-0.4-0.9-0.9S46.7,33.8,47.2,33.8z M92.2,50.6c0.4-0.4,0.9-0.4,1.3,0
	s0.4,0.9,0,1.3L90.4,55l3,3c0.4,0.4,0.4,0.9,0,1.3c-0.2,0.2-0.5,0.3-0.7,0.3c-0.3,0-0.5-0.1-0.7-0.3l-3.7-3.7
	c-0.4-0.4-0.4-0.9,0-1.3L92.2,50.6z M90,67.5h9.4c0.6,0,0.9,0.4,0.9,0.9s-0.4,0.9-0.9,0.9H90c-0.6,0-0.9-0.4-0.9-0.9
	S89.4,67.5,90,67.5z M90,71.3h13.1c0.6,0,0.9,0.4,0.9,0.9s-0.4,0.9-0.9,0.9H90c-0.6,0-0.9-0.4-0.9-0.9S89.4,71.3,90,71.3z M65,33.8
	h9.4c0.6,0,0.9,0.4,0.9,0.9s-0.4,0.9-0.9,0.9H65c-0.6,0-0.9-0.4-0.9-0.9S64.5,33.8,65,33.8z M105.4,50.6c0.4-0.4,0.9-0.4,1.3,0
	l3.8,3.8c0.4,0.4,0.4,0.9,0,1.3l-3.7,3.7c-0.2,0.2-0.5,0.3-0.7,0.3c-0.3,0-0.5-0.1-0.7-0.3c-0.4-0.4-0.4-0.9,0-1.3l3-3l-3.1-3.1
	C105,51.6,105,51,105.4,50.6z M95.6,55.4c-0.6,0-0.9-0.4-0.9-0.9c0-0.6,0.4-0.9,0.9-0.9h8.4c0.6,0,0.9,0.4,0.9,0.9
	c0,0.6-0.4,0.9-0.9,0.9H95.6z M114.4,68.4c0,0.6-0.4,0.9-0.9,0.9h-9.4c-0.6,0-0.9-0.4-0.9-0.9s0.4-0.9,0.9-0.9h9.4
	C114,67.5,114.4,67.9,114.4,68.4z M104.5,33.6c0,0.6-0.2,0.9-0.4,0.9h-3.3c-0.2,0-0.4-0.4-0.4-0.9s0.2-0.9,0.4-0.9h3.3
	C104.3,32.6,104.5,33,104.5,33.6z M110.2,33.6c0,0.6-0.2,0.9-0.4,0.9h-3.3c-0.2,0-0.4-0.4-0.4-0.9s0.2-0.9,0.4-0.9h3.3
	C110,32.6,110.2,33,110.2,33.6z M115.6,33.6c0,0.6-0.2,0.9-0.4,0.9h-3.3c-0.2,0-0.4-0.4-0.4-0.9s0.2-0.9,0.4-0.9h3.3
	C115.4,32.6,115.6,33,115.6,33.6z M107.8,71.3h9.4c0.6,0,0.9,0.4,0.9,0.9s-0.4,0.9-0.9,0.9h-9.4c-0.6,0-0.9-0.4-0.9-0.9
	S107.3,71.3,107.8,71.3z M39.5,29h-4.8v-2.6H39v-2h-4.3v-2.4h4.9v-2.1h-7.5V31h7.4V29z M26.6,29.3c-0.7,0-1.1-0.2-1.5-0.5
	c-0.3-0.3-0.5-0.8-0.5-1.3H22c0,0.8,0.2,1.4,0.6,2s0.9,1,1.6,1.3c0.8,0.3,1.5,0.5,2.3,0.5c1.2,0,2.3-0.3,3-0.8s1.1-1.3,1.1-2.3
	c0-1.2-0.6-2.2-1.8-2.9c-0.5-0.3-1.1-0.6-1.9-0.8c-0.8-0.3-1.3-0.5-1.6-0.8c-0.3-0.3-0.5-0.5-0.5-0.8c0-0.4,0.1-0.6,0.4-0.8
	c0.3-0.2,0.7-0.3,1.1-0.3s0.8,0.1,1.1,0.4c0.3,0.3,0.4,0.6,0.4,1h2.6c0-0.7-0.2-1.3-0.6-1.8c-0.4-0.6-0.8-0.9-1.4-1.2
	c-0.7-0.3-1.3-0.5-2.1-0.5c-0.8,0-1.5,0.1-2.2,0.4c-0.7,0.3-1.1,0.7-1.5,1.1c-0.4,0.5-0.6,1-0.6,1.6c0,1.2,0.7,2.3,2.2,2.9
	c0.5,0.2,1,0.5,1.7,0.7c0.7,0.3,1.1,0.5,1.4,0.7c0.3,0.2,0.4,0.6,0.4,0.9s-0.1,0.7-0.4,0.8C27.5,29.2,27.1,29.3,26.6,29.3z"/>
</svg>
